<?xml version="1.0" encoding="UTF-8"?>
<svg version="1.1" xmlns="http://www.w3.org/2000/svg" width="1024" height="1024">
<path d="M0 0 C337.92 0 675.84 0 1024 0 C1024 337.92 1024 675.84 1024 1024 C686.08 1024 348.16 1024 0 1024 C0 686.08 0 348.16 0 0 Z " fill="#F4F4F4" transform="translate(0,0)"/>
<path d="M0 0 C84.48 0 168.96 0 256 0 C256 28.38 256 56.76 256 86 C284.05 86 312.1 86 341 86 C341 113.72 341 141.44 341 170 C397.43 170 453.86 170 512 170 C512 142.61 512 115.22 512 87 C539.72 87 567.44 87 596 87 C596 114.39 596 141.78 596 170 C591.9492417 171.01268957 588.33237356 171.13374233 584.20214844 171.11352539 C583.01196295 171.11370619 583.01196295 171.11370619 581.79773331 171.11389065 C579.23491847 171.11314557 576.67217679 171.10553577 574.109375 171.09765625 C572.5249027 171.09618558 570.94042991 171.09516564 569.35595703 171.09460449 C563.48729727 171.08936613 557.61864791 171.0754049 551.75 171.0625 C538.6325 171.041875 525.515 171.02125 512 171 C512 199.05 512 227.1 512 256 C539.72 256 567.44 256 596 256 C596 276.79 596 297.58 596 319 C598.97 319.66 601.94 320.32 605 321 C633.58667438 329.98737792 660.2323696 345.31270125 682.625 365.1875 C685.39731278 367.61585337 688.35446298 369.60678701 691.4375 371.625 C713.44341148 386.06637941 733.82934214 403.13749068 750 424 C750.80953125 425.00417969 751.6190625 426.00835937 752.453125 427.04296875 C758.76243458 434.93385401 764.0232861 443.21836832 769 452 C769.34272949 452.58974609 769.68545898 453.17949219 770.03857422 453.78710938 C781.78720445 474.05616794 790.76869818 497.28204741 789 521 C788.67 521.99 788.34 522.98 788 524 C786.140625 523.75390625 786.140625 523.75390625 784 523 C782.734375 521.15234375 782.734375 521.15234375 781.75 518.9375 C781.41484375 518.20402344 781.0796875 517.47054687 780.734375 516.71484375 C780.49203125 516.14894531 780.2496875 515.58304688 780 515 C779.97421875 516.29292969 779.9484375 517.58585938 779.921875 518.91796875 C779.18225622 544.5968403 779.18225622 544.5968403 770.46484375 553.73046875 C767.87164668 555.97790621 766.16584131 556.97448595 762.75 557.5 C757.68413517 556.82455136 755.27349143 554.82859721 752 551 C747.11035817 543.54837331 744.79815099 534.77966088 744 526 C742.39125 526.1546875 742.39125 526.1546875 740.75 526.3125 C737 526 737 526 734.9375 523.875 C732.9244721 520.88792634 731.573562 518.03317062 730.25 514.6875 C729.60804688 513.08455078 729.60804688 513.08455078 728.953125 511.44921875 C728.63859375 510.64097656 728.3240625 509.83273437 728 509 C727.51789062 509.56589844 727.03578125 510.13179688 726.5390625 510.71484375 C725.90742187 511.44832031 725.27578125 512.18179688 724.625 512.9375 C723.99851562 513.66839844 723.37203125 514.39929688 722.7265625 515.15234375 C720.16348072 517.89518919 718.33603503 518.21556822 714.6875 518.375 C711.2502866 518.30911093 710.22298837 518.15557328 707.3125 516.125 C699 504.89189189 699 504.89189189 699 501 C698.34 501 697.68 501 697 501 C696.79375 501.556875 696.5875 502.11375 696.375 502.6875 C693.79891048 507.02001419 689.62687116 510.08425297 685 512 C680.42292026 512.64004692 676.35474851 512.61847215 672.125 510.6875 C666.79354343 503.94477552 665.31075362 494.81899969 663.48217773 486.57128906 C662.56063165 482.58039598 661.68281217 479.14783295 659 476 C645.57793439 472.72632546 628.34958669 479.40283609 616.95703125 486.06640625 C602.5253136 495.50326257 591.26345825 508.43396369 587.40673828 525.64794922 C586.01088152 533.16628841 585.69605793 540.49219639 585.75 548.125 C585.74226562 549.22714844 585.73453125 550.32929687 585.7265625 551.46484375 C585.74939625 561.08926993 587.19243252 569.76413632 590.625 578.75 C590.88297363 579.42756348 591.14094727 580.10512695 591.40673828 580.80322266 C595.83905268 592.02390767 602.094266 601.87476448 610 611 C609.67 611.66 609.34 612.32 609 613 C598.07708105 606.26791526 587.52053038 599.16043649 577.875 590.6875 C573.14961733 586.65776385 568.78738266 584.4157199 563.0078125 582.2578125 C550.25835959 576.9262231 536.2741803 565.5483606 530 553 C531.76430452 565.52166122 540.06033725 577.57590631 548 587 C548.72058594 587.87140625 549.44117188 588.7428125 550.18359375 589.640625 C555.54511093 595.8718357 561.46836717 601.02879643 568 606 C568.7748877 606.59530518 568.7748877 606.59530518 569.56542969 607.20263672 C579.14540516 614.50787512 589.32039012 620.45026203 600 626 C600.66273926 626.34772461 601.32547852 626.69544922 602.00830078 627.05371094 C624.95298603 638.93464167 650.04677817 645.79510275 675 652 C675.97018066 652.24588867 676.94036133 652.49177734 677.93994141 652.74511719 C700.11980888 658.35915839 722.59150127 662.30587986 745.24145508 665.46606445 C748.06940511 665.86780052 750.89349215 666.28404559 753.7175293 666.71166992 C766.51217881 668.62855949 779.29799946 669.97543867 792.1875 671.0625 C794.16718736 671.23375656 796.14684204 671.40539137 798.12646484 671.57739258 C810.68523819 672.66229555 823.24832306 673.68534894 835.8203125 674.60546875 C841.22000388 675.0041106 846.60903176 675.4976002 852 676 C852 681.61 852 687.22 852 693 C865.86 693 879.72 693 894 693 C894 715.11 894 737.22 894 760 C711.51 760 529.02 760 341 760 C341 762.64 341 765.28 341 768 C312.95 768 284.9 768 256 768 C256 765.69 256 763.38 256 761 C242.14 761 228.28 761 214 761 C214 748.46 214 735.92 214 723 C200.14 723 186.28 723 172 723 C172 737.85 172 752.7 172 768 C143.62 768 115.24 768 86 768 C86 739.62 86 711.24 86 682 C57.62 682 29.24 682 0 682 C0 456.94 0 231.88 0 0 Z M332.17553711 170.09179688 C330.94636818 170.10642723 330.94636818 170.10642723 329.69236755 170.12135315 C326.97069228 170.15376237 324.24901802 170.18625604 321.52734375 170.21875 C319.64547227 170.24117542 317.76360073 170.26359561 315.88172913 170.28601074 C310.91852761 170.34514202 305.95532695 170.40434478 300.99212646 170.46356201 C295.93160045 170.52392795 290.87107363 170.58422685 285.81054688 170.64453125 C275.87369713 170.76295492 265.93684829 170.88145404 256 171 C255.97687703 181.93496471 255.95908515 192.86992366 255.94818783 203.8049078 C255.9429589 208.88191018 255.93586108 213.95889589 255.92456055 219.03588867 C255.91373201 223.93120552 255.90772324 228.82650629 255.90512276 233.72183418 C255.90326845 235.59382951 255.89964772 237.46582391 255.89426994 239.33781242 C255.88705996 241.95040699 255.88600904 244.56293427 255.88647461 247.17553711 C255.88287933 247.95740387 255.87928406 248.73927063 255.87557983 249.54483032 C255.55716038 253.06522819 255.55716038 253.06522819 257 256 C259.61781798 256.06509751 262.20763835 256.06504405 264.82446289 256.02172852 C265.65720702 256.01193686 266.48995115 256.00214521 267.34792995 255.99205685 C270.05625557 255.95905673 272.76442877 255.9190971 275.47265625 255.87890625 C277.13960196 255.85757478 278.80655354 255.83669723 280.47351074 255.81628418 C286.6699133 255.73720171 292.86620087 255.6493091 299.0625 255.5625 C319.8215625 255.2840625 319.8215625 255.2840625 341 255 C341 226.95 341 198.9 341 170 C338.05863864 170 335.11671074 170.0566219 332.17553711 170.09179688 Z " fill="#EAEAEA" transform="translate(0,0)"/>
<path d="M0 0 C1.14339844 0.00902344 2.28679687 0.01804687 3.46484375 0.02734375 C4.32207031 0.03894531 5.17929687 0.05054688 6.0625 0.0625 C6.0625 0.3925 6.0625 0.7225 6.0625 1.0625 C2.7625 1.7225 -0.5375 2.3825 -3.9375 3.0625 C-2.86157593 3.08437378 -2.86157593 3.08437378 -1.76391602 3.10668945 C33.09767418 3.89062509 69.08621204 7.09080496 101.0625 22.0625 C102.19042969 22.56523437 103.31835938 23.06796875 104.48046875 23.5859375 C130.82806365 35.92465594 155.43578169 59.22491179 166.375 86.3125 C167.12759216 89.32286863 167.20969747 91.97135305 167.0625 95.0625 C162.94317514 94.55923407 161.32662567 92.50258981 158.6875 89.4375 C157.89085937 88.52742188 157.09421875 87.61734375 156.2734375 86.6796875 C155.02668713 85.20385226 153.79207481 83.71687636 152.6015625 82.1953125 C149.06623888 77.71723591 144.8183928 74.4217978 140.27856445 71.02416992 C136.39199009 68.11181862 132.66757537 65.05958318 129 61.875 C109.82145383 43.4655541 109.82145383 43.4655541 87.0625 33.0625 C87.65675781 33.54976563 88.25101563 34.03703125 88.86328125 34.5390625 C99.71460341 43.82090883 108.74516287 55.21221697 115.0625 68.0625 C115.0625 68.7225 115.0625 69.3825 115.0625 70.0625 C109.32596704 68.62612242 105.53621987 65.66677498 101 62.0625 C100.25049072 61.48016602 99.50098145 60.89783203 98.72875977 60.29785156 C95.33725459 57.65981344 91.97037982 54.99309183 88.625 52.296875 C76.9699765 43.03113131 64.84073933 36.53760787 51 31.0625 C50.02434082 30.67634521 49.04868164 30.29019043 48.04345703 29.89233398 C43.02020142 27.97468686 38.42535204 26.5385368 33.0625 26.0625 C34.02929688 26.5471875 34.99609375 27.031875 35.9921875 27.53125 C44.08279979 31.66459951 51.20991369 36.02899388 58.0625 42.0625 C59.27292969 43.05830078 59.27292969 43.05830078 60.5078125 44.07421875 C69.67467452 51.8473729 80.60142938 63.21498904 84.0625 75.0625 C83.77127193 76.40565863 83.44261859 77.74174312 83.0625 79.0625 C82.62083496 78.73564209 82.17916992 78.40878418 81.72412109 78.07202148 C56.82127181 59.76034527 30.38953167 49.6201228 -0.93896484 53.42724609 C-9.73301147 54.76953285 -18.41944363 56.48619412 -26.9375 59.0625 C-26.36008057 59.07708252 -25.78266113 59.09166504 -25.18774414 59.10668945 C-1.35941319 59.77455294 19.72004458 63.4476498 41.15625 74.12109375 C43.10424349 75.08311513 45.06555852 76.01224288 47.03125 76.9375 C68.51191047 87.17209624 87.77998756 101.79803391 103.0625 120.0625 C107.36959717 115.75540283 108.2470432 110.33367715 108.35546875 104.46875 C108.3357791 102.49978458 108.30037294 100.53091944 108.25 98.5625 C108.22969727 97.04269531 108.22969727 97.04269531 108.20898438 95.4921875 C108.17393063 93.01505596 108.12479764 90.53907073 108.0625 88.0625 C112.10575301 91.70908275 114.51988413 95.32394923 116.75 100.3125 C117.19182617 101.23869141 117.19182617 101.23869141 117.64257812 102.18359375 C121.71950172 111.07037103 122.34655235 119.42892422 122.1875 129.125 C122.17847656 130.18138672 122.16945313 131.23777344 122.16015625 132.32617188 C122.1368167 134.90519253 122.10407775 137.4837199 122.0625 140.0625 C123.33009997 138.98169626 124.59362123 137.89610801 125.85546875 136.80859375 C126.55953857 136.2045874 127.2636084 135.60058105 127.98901367 134.97827148 C136.2060589 127.38623641 137.57864916 118.67073189 139.0625 108.0625 C154.52832649 114.87156963 167.51178855 126.16349716 177.0625 140.0625 C179.0381562 137.09901571 179.32626859 136.38229627 179.4765625 133.05078125 C179.51523437 132.29345703 179.55390625 131.53613281 179.59375 130.75585938 C179.6246875 129.97017578 179.655625 129.18449219 179.6875 128.375 C179.72617187 127.57771484 179.76484375 126.78042969 179.8046875 125.95898438 C179.89882494 123.99386525 179.98174632 122.0282146 180.0625 120.0625 C184.59561915 124.10271314 187.23132309 128.43947705 190 133.8125 C190.4338501 134.64869873 190.8677002 135.48489746 191.31469727 136.34643555 C198.43931399 150.41380343 205.02304849 167.05335845 204.0625 183.0625 C208.3526415 179.36410215 210.63572814 175.19581327 211.39526367 169.61938477 C211.57770897 166.95289571 211.68267577 164.29681016 211.75 161.625 C211.80124023 160.24151367 211.80124023 160.24151367 211.85351562 158.83007812 C211.93532994 156.57434049 212.00469122 154.31895881 212.0625 152.0625 C214.83079938 155.34541913 216.95527018 158.5057712 218.8125 162.375 C219.24046875 163.25800781 219.6684375 164.14101563 220.109375 165.05078125 C220.42390625 165.71464844 220.7384375 166.37851562 221.0625 167.0625 C221.3925 167.0625 221.7225 167.0625 222.0625 167.0625 C222.80812657 150.32732598 219.70367346 136.51702697 213.0625 121.0625 C212.7948584 120.42763672 212.5272168 119.79277344 212.25146484 119.13867188 C204.8934117 101.87155223 194.50078606 87.03346586 182.0625 73.0625 C181.38058594 72.25941406 180.69867187 71.45632813 179.99609375 70.62890625 C176.92857495 67.01811199 173.92003724 63.86798163 170.0625 61.0625 C170.3925 60.4025 170.7225 59.7425 171.0625 59.0625 C179.51542915 64.17830081 187.37220934 69.88300499 195.0625 76.0625 C195.86324951 76.70445312 195.86324951 76.70445312 196.68017578 77.359375 C209.44004919 87.66975644 221.00426372 99.08590684 231.0625 112.0625 C231.87203125 113.06667969 232.6815625 114.07085937 233.515625 115.10546875 C239.82493458 122.99635401 245.0857861 131.28086832 250.0625 140.0625 C250.40522949 140.65224609 250.74795898 141.24199219 251.10107422 141.84960938 C262.84970445 162.11866794 271.83119818 185.34454741 270.0625 209.0625 C269.7325 210.0525 269.4025 211.0425 269.0625 212.0625 C267.203125 211.81640625 267.203125 211.81640625 265.0625 211.0625 C263.796875 209.21484375 263.796875 209.21484375 262.8125 207 C262.47734375 206.26652344 262.1421875 205.53304687 261.796875 204.77734375 C261.55453125 204.21144531 261.3121875 203.64554688 261.0625 203.0625 C261.03671875 204.35542969 261.0109375 205.64835938 260.984375 206.98046875 C260.24475622 232.6593403 260.24475622 232.6593403 251.52734375 241.79296875 C248.93414668 244.04040621 247.22834131 245.03698595 243.8125 245.5625 C238.74663517 244.88705136 236.33599143 242.89109721 233.0625 239.0625 C228.17285817 231.61087331 225.86065099 222.84216088 225.0625 214.0625 C223.99 214.165625 222.9175 214.26875 221.8125 214.375 C218.0625 214.0625 218.0625 214.0625 216 211.9375 C213.9869721 208.95042634 212.636062 206.09567062 211.3125 202.75 C210.67054688 201.14705078 210.67054688 201.14705078 210.015625 199.51171875 C209.70109375 198.70347656 209.3865625 197.89523437 209.0625 197.0625 C208.58039062 197.62839844 208.09828125 198.19429687 207.6015625 198.77734375 C206.96992187 199.51082031 206.33828125 200.24429688 205.6875 201 C204.74777344 202.09634766 204.74777344 202.09634766 203.7890625 203.21484375 C201.22598072 205.95768919 199.39853503 206.27806822 195.75 206.4375 C192.3127866 206.37161093 191.28548837 206.21807328 188.375 204.1875 C180.0625 192.95439189 180.0625 192.95439189 180.0625 189.0625 C179.4025 189.0625 178.7425 189.0625 178.0625 189.0625 C177.85625 189.619375 177.65 190.17625 177.4375 190.75 C174.86141048 195.08251419 170.68937116 198.14675297 166.0625 200.0625 C161.48542026 200.70254692 157.41724851 200.68097215 153.1875 198.75 C147.85604343 192.00727552 146.37325362 182.88149969 144.54467773 174.63378906 C143.62313165 170.64289598 142.74531217 167.21033295 140.0625 164.0625 C126.64043439 160.78882546 109.41208669 167.46533609 98.01953125 174.12890625 C83.5878136 183.56576257 72.32595825 196.49646369 68.46923828 213.71044922 C67.07338152 221.22878841 66.75855793 228.55469639 66.8125 236.1875 C66.80476563 237.28964844 66.79703125 238.39179687 66.7890625 239.52734375 C66.81189625 249.15176993 68.25493252 257.82663632 71.6875 266.8125 C71.94547363 267.49006348 72.20344727 268.16762695 72.46923828 268.86572266 C76.90155268 280.08640767 83.156766 289.93726448 91.0625 299.0625 C90.7325 299.7225 90.4025 300.3825 90.0625 301.0625 C79.13958105 294.33041526 68.58303038 287.22293649 58.9375 278.75 C54.21211733 274.72026385 49.84988266 272.4782199 44.0703125 270.3203125 C31.32085959 264.9887231 17.3366803 253.6108606 11.0625 241.0625 C12.82680452 253.58416122 21.12283725 265.63840631 29.0625 275.0625 C30.14337891 276.36960937 30.14337891 276.36960937 31.24609375 277.703125 C36.60761093 283.9343357 42.53086717 289.09129643 49.0625 294.0625 C49.5790918 294.45937012 50.09568359 294.85624023 50.62792969 295.26513672 C60.20790516 302.57037512 70.38289012 308.51276203 81.0625 314.0625 C81.72523926 314.41022461 82.38797852 314.75794922 83.07080078 315.11621094 C106.01548603 326.99714167 131.10927817 333.85760275 156.0625 340.0625 C157.03268066 340.30838867 158.00286133 340.55427734 159.00244141 340.80761719 C181.18230888 346.42165839 203.65400127 350.36837986 226.30395508 353.52856445 C229.13190511 353.93030052 231.95599215 354.34654559 234.7800293 354.77416992 C247.57467881 356.69105949 260.36049946 358.03793867 273.25 359.125 C275.22968736 359.29625656 277.20934204 359.46789137 279.18896484 359.63989258 C291.74773819 360.72479555 304.31082306 361.74784894 316.8828125 362.66796875 C322.28250388 363.0666106 327.67153176 363.5601002 333.0625 364.0625 C333.0625 369.6725 333.0625 375.2825 333.0625 381.0625 C346.9225 381.0625 360.7825 381.0625 375.0625 381.0625 C375.0625 403.1725 375.0625 425.2825 375.0625 448.0625 C150.9925 448.0625 -73.0775 448.0625 -303.9375 448.0625 C-303.9375 435.5225 -303.9375 422.9825 -303.9375 410.0625 C-318.1275 410.0625 -332.3175 410.0625 -346.9375 410.0625 C-347.3217816 391.72061736 -347.63468652 373.38200943 -347.81830692 355.03711891 C-347.90584502 346.5185566 -348.02508923 338.00267847 -348.2199707 329.48583984 C-348.38982415 322.05922969 -348.4991784 314.63456306 -348.53700441 307.20606458 C-348.55911062 303.27413458 -348.61071995 299.34776204 -348.73491096 295.41762161 C-349.4607857 271.53345278 -349.4607857 271.53345278 -345.30662155 265.81911469 C-341.36512982 262.32804384 -337.05413211 260.51379757 -332.09971428 258.89170456 C-328.52053603 257.51909734 -325.60213221 255.29602008 -322.5625 253 C-321.96255942 252.56044165 -321.36261885 252.12088329 -320.74449825 251.66800499 C-304.43040695 239.70796148 -288.89785075 225.60395234 -275.76953125 210.17578125 C-273.88825219 208.00569176 -271.94760902 205.89711028 -269.99365234 203.79248047 C-264.38356496 197.74598915 -259.0872199 191.50925756 -253.9375 185.0625 C-253.3290625 184.31097656 -252.720625 183.55945313 -252.09375 182.78515625 C-248.35534593 178.15175291 -244.69194275 173.4628395 -241.04638672 168.75634766 C-233.80881933 159.41380688 -226.42963527 150.20173399 -218.9375 141.0625 C-218.11378906 140.05445313 -217.29007813 139.04640625 -216.44140625 138.0078125 C-214.97405125 136.21240066 -213.50536896 134.41807249 -212.03515625 132.625 C-210.62232406 130.89908209 -209.21354291 129.16984098 -207.80859375 127.4375 C-191.38330751 107.22176309 -191.38330751 107.22176309 -183.48828125 99.609375 C-181.83087921 97.95614778 -180.3276415 96.22175422 -178.8125 94.4375 C-171.8002374 86.31720494 -164.04486253 78.64492487 -155.859375 71.7109375 C-154.49033043 70.53667569 -153.1491349 69.32961245 -151.828125 68.1015625 C-127.52058793 45.50697267 -98.98349186 28.74600445 -68.9375 15.0625 C-68.27266602 14.75940918 -67.60783203 14.45631836 -66.92285156 14.14404297 C-51.00756442 7.05450597 -33.08687334 3.6220506 -15.89868164 1.3293457 C-14.04194923 1.07671175 -12.19057468 0.78557156 -10.33984375 0.4921875 C-6.85199419 0.05170133 -3.51342588 -0.03622089 0 0 Z " fill="#4F7675" transform="translate(518.9375,311.9375)"/>
<path d="M0 0 C28.71 0 57.42 0 87 0 C87 112.86 87 225.72 87 342 C-53.91 342 -194.82 342 -340 342 C-340 313.29 -340 284.58 -340 255 C-311.95 255 -283.9 255 -255 255 C-255 227.28 -255 199.56 -255 171 C-199.23 171 -143.46 171 -86 171 C-86 142.95 -86 114.9 -86 86 C-141.77 86 -197.54 86 -255 86 C-255 83.69 -255 81.38 -255 79 C-198.9 79 -142.8 79 -85 79 C-85 81.31 -85 83.62 -85 86 C-56.95 86 -28.9 86 0 86 C0 57.62 0 29.24 0 0 Z " fill="#EBEBEB" transform="translate(937,682)"/>
<path d="M0 0 C27.72 0 55.44 0 84 0 C84 27.39 84 54.78 84 83 C79.9492417 84.01268957 76.33237356 84.13374233 72.20214844 84.11352539 C71.40869144 84.11364593 70.61523445 84.11376646 69.79773331 84.11389065 C67.23491847 84.11314557 64.67217679 84.10553577 62.109375 84.09765625 C60.5249027 84.09618558 58.94042991 84.09516564 57.35595703 84.09460449 C51.48729727 84.08936613 45.61864791 84.0754049 39.75 84.0625 C26.6325 84.041875 13.515 84.02125 0 84 C0 112.05 0 140.1 0 169 C27.72 169 55.44 169 84 169 C84 189.79 84 210.58 84 232 C86.97 232.66 89.94 233.32 93 234 C123.39300641 243.55527149 150.06585632 260.25707548 174 281 C174.99 281.66 175.98 282.32 177 283 C177.33 283.99 177.66 284.98 178 286 C179.42855449 287.36997109 179.42855449 287.36997109 181.25 288.75 C205.19834852 309.23439096 225.5252167 343.62840095 230 375 C230.10973373 377.9391924 230.09454419 380.87182951 230.0625 383.8125 C230.05798828 384.60076172 230.05347656 385.38902344 230.04882812 386.20117188 C230.03711312 388.13414761 230.01917998 390.06708393 230 392 C229.01 392 228.02 392 227 392 C224.69 387.71 222.38 383.42 220 379 C219.97873047 380.77503906 219.97873047 380.77503906 219.95703125 382.5859375 C219.51220887 400.26108569 219.51220887 400.26108569 214 407 C213.01 407.33 212.02 407.66 211 408 C210.76216797 406.45505859 210.76216797 406.45505859 210.51953125 404.87890625 C207.15272278 383.90665071 201.01985699 363.15831154 188 346 C187.95101562 347.10859375 187.90203125 348.2171875 187.8515625 349.359375 C187.77650785 350.82294065 187.70096119 352.28648112 187.625 353.75 C187.5940625 354.47960937 187.563125 355.20921875 187.53125 355.9609375 C187.3251506 359.73942656 187.08487157 362.77946668 185 366 C181.45103753 362.51475319 178.11570264 358.91031183 174.8125 355.1875 C166.65686258 346.2026625 157.63095036 339.84519607 147 334 C146.85304688 334.97839844 146.70609375 335.95679688 146.5546875 336.96484375 C144.62019336 348.69159149 140.53011044 357.36117436 131 365 C130.34 365 129.68 365 129 365 C128.97812622 364.04130005 128.97812622 364.04130005 128.95581055 363.06323242 C128.88030517 360.1041155 128.78399275 357.1460041 128.6875 354.1875 C128.66494141 353.18267578 128.64238281 352.17785156 128.61914062 351.14257812 C128.24534197 340.57427072 125.76088728 331.62763772 120.8125 322.3125 C120.26045898 321.24225586 120.26045898 321.24225586 119.69726562 320.15039062 C118.80754369 318.42872091 117.90517429 316.71359599 117 315 C116.67 315.33 116.34 315.66 116 316 C116.02326732 318.11309538 116.05257888 320.22632862 116.11523438 322.33862305 C116.34637715 330.65117309 116.27013237 337.58445763 112 345 C109 345 109 345 107.48876953 343.68994141 C106.95880371 343.08327637 106.42883789 342.47661133 105.8828125 341.8515625 C105.28291504 341.18084717 104.68301758 340.51013184 104.06494141 339.8190918 C103.42476074 339.0950415 102.78458008 338.37099121 102.125 337.625 C95.60206324 330.47989715 89.00919749 324.47578862 81 319 C80.35305176 318.55317871 79.70610352 318.10635742 79.03955078 317.64599609 C69.10718628 310.84374599 58.91570771 305.05935244 48 300 C47.34676758 299.69078613 46.69353516 299.38157227 46.02050781 299.06298828 C23.42551621 288.41138184 1.8379577 285.7142183 -23 285 C-19.49044072 282.66029381 -16.11008605 281.90828184 -12.0625 281 C-11.29325195 280.82629883 -10.52400391 280.65259766 -9.73144531 280.47363281 C-8.18733543 280.12970863 -6.6422555 279.79010795 -5.09619141 279.45507812 C-3.37766459 279.08199008 -1.66285385 278.69182291 0.05078125 278.296875 C13.39119243 275.59404206 28.79336192 275.71553662 42 279 C42.62261719 279.15065918 43.24523437 279.30131836 43.88671875 279.45654297 C60.28500193 283.52097459 73.84254874 290.48276699 87 301 C87.99 301.66 88.98 302.32 90 303 C87.58438059 287.96947921 73.56583385 274.00116397 62 265 C54.42895381 259.58405042 46.46685524 254.88226773 38 251 C47.28759412 247.68457042 63.09535546 256.92327809 71.63085938 260.84082031 C80.88139741 265.36694919 89.39190426 271.21112446 97.296875 277.78515625 C100.87931068 280.72047566 104.55531095 283.52052876 108.25 286.3125 C109.26126953 287.0866626 109.26126953 287.0866626 110.29296875 287.87646484 C114.04373176 290.7034632 117.70009975 293.04367893 122 295 C114.14293838 280.18639959 104.87947511 267.81178374 92 257 C92.66 256.67 93.32 256.34 94 256 C108.57467789 262.37476837 121.96273607 274.0817559 133.78808594 284.53222656 C137.53360774 287.820712 141.40934097 290.84212348 145.41699219 293.8046875 C154.59061335 300.5885418 162.99952766 307.92995418 169.6328125 317.30859375 C170.98743991 319.29526072 170.98743991 319.29526072 174 320 C168.1127515 290.87361269 145.45236359 271.03644928 121.94921875 254.90625 C104.86597523 244.27452843 84.40018286 238.54162878 64.8125 234.875 C63.78780106 234.68123276 63.78780106 234.68123276 62.74240112 234.48355103 C41.47028923 230.47699278 20.60114609 229.48921763 -1 229 C1.33214148 227.79371992 3.49642139 226.8345262 6 226 C-10.03048334 226.83462122 -25.61092829 229.43905977 -41 234 C-42.28379286 234.36219655 -43.56764822 234.7241716 -44.8515625 235.0859375 C-68.99209211 242.06579045 -92.71576697 254.2503164 -113 269 C-113.66080566 269.47969238 -114.32161133 269.95938477 -115.00244141 270.45361328 C-126.89407448 279.13989421 -138.28990498 288.27801554 -149.08203125 298.30078125 C-151.77812414 300.7947574 -154.50622684 303.24625619 -157.25 305.6875 C-161.14989157 309.17787145 -164.86257967 312.80785387 -168.50390625 316.56640625 C-170 318 -170 318 -171 318 C-171 297.21 -171 276.42 -171 255 C-198.72 255 -226.44 255 -255 255 C-255.33 282.72 -255.66 310.44 -256 339 C-283.72 339 -311.44 339 -340 339 C-340 311.28 -340 283.56 -340 255 C-312.28 255 -284.56 255 -256 255 C-256.020625 246.564375 -256.04125 238.12875 -256.0625 229.4375 C-256.08691244 209.26805796 -255.91831216 189.15046797 -255 169 C-244.75294631 168.10893813 -234.59766855 167.86484781 -224.3203125 167.90234375 C-222.94458049 167.90381953 -221.56884792 167.90483631 -220.19311523 167.90539551 C-215.17040143 167.91057472 -210.14769975 167.92453538 -205.125 167.9375 C-193.86375 167.958125 -182.6025 167.97875 -171 168 C-171 139.95 -171 111.9 -171 83 C-114.57 83 -58.14 83 0 83 C0 55.61 0 28.22 0 0 Z " fill="#EAEAEA" transform="translate(512,87)"/>
<path d="M0 0 C1.14339844 0.00902344 2.28679687 0.01804687 3.46484375 0.02734375 C4.32207031 0.03894531 5.17929687 0.05054688 6.0625 0.0625 C6.0625 0.3925 6.0625 0.7225 6.0625 1.0625 C2.7625 1.7225 -0.5375 2.3825 -3.9375 3.0625 C-2.86157593 3.08437378 -2.86157593 3.08437378 -1.76391602 3.10668945 C33.09767418 3.89062509 69.08621204 7.09080496 101.0625 22.0625 C102.19042969 22.56523437 103.31835938 23.06796875 104.48046875 23.5859375 C130.82806365 35.92465594 155.43578169 59.22491179 166.375 86.3125 C167.12759216 89.32286863 167.20969747 91.97135305 167.0625 95.0625 C162.94317514 94.55923407 161.32662567 92.50258981 158.6875 89.4375 C157.89085937 88.52742188 157.09421875 87.61734375 156.2734375 86.6796875 C155.02668713 85.20385226 153.79207481 83.71687636 152.6015625 82.1953125 C149.06623888 77.71723591 144.8183928 74.4217978 140.27856445 71.02416992 C136.39199009 68.11181862 132.66757537 65.05958318 129 61.875 C109.82145383 43.4655541 109.82145383 43.4655541 87.0625 33.0625 C87.65675781 33.54976563 88.25101563 34.03703125 88.86328125 34.5390625 C99.71460341 43.82090883 108.74516287 55.21221697 115.0625 68.0625 C115.0625 68.7225 115.0625 69.3825 115.0625 70.0625 C109.32596704 68.62612242 105.53621987 65.66677498 101 62.0625 C100.25049072 61.48016602 99.50098145 60.89783203 98.72875977 60.29785156 C95.33725459 57.65981344 91.97037982 54.99309183 88.625 52.296875 C76.9699765 43.03113131 64.84073933 36.53760787 51 31.0625 C50.02434082 30.67634521 49.04868164 30.29019043 48.04345703 29.89233398 C43.02020142 27.97468686 38.42535204 26.5385368 33.0625 26.0625 C34.02929688 26.5471875 34.99609375 27.031875 35.9921875 27.53125 C44.08279979 31.66459951 51.20991369 36.02899388 58.0625 42.0625 C59.27292969 43.05830078 59.27292969 43.05830078 60.5078125 44.07421875 C69.67467452 51.8473729 80.60142938 63.21498904 84.0625 75.0625 C83.77127193 76.40565863 83.44261859 77.74174312 83.0625 79.0625 C82.62083496 78.73564209 82.17916992 78.40878418 81.72412109 78.07202148 C56.82127181 59.76034527 30.38953167 49.6201228 -0.93896484 53.42724609 C-9.73301147 54.76953285 -18.41944363 56.48619412 -26.9375 59.0625 C-26.36008057 59.07708252 -25.78266113 59.09166504 -25.18774414 59.10668945 C-1.35941319 59.77455294 19.72004458 63.4476498 41.15625 74.12109375 C43.10424349 75.08311513 45.06555852 76.01224288 47.03125 76.9375 C68.51191047 87.17209624 87.77998756 101.79803391 103.0625 120.0625 C107.36959717 115.75540283 108.2470432 110.33367715 108.35546875 104.46875 C108.3357791 102.49978458 108.30037294 100.53091944 108.25 98.5625 C108.22969727 97.04269531 108.22969727 97.04269531 108.20898438 95.4921875 C108.17393063 93.01505596 108.12479764 90.53907073 108.0625 88.0625 C112.10575301 91.70908275 114.51988413 95.32394923 116.75 100.3125 C117.19182617 101.23869141 117.19182617 101.23869141 117.64257812 102.18359375 C121.71950172 111.07037103 122.34655235 119.42892422 122.1875 129.125 C122.17847656 130.18138672 122.16945313 131.23777344 122.16015625 132.32617188 C122.1368167 134.90519253 122.10407775 137.4837199 122.0625 140.0625 C123.33009997 138.98169626 124.59362123 137.89610801 125.85546875 136.80859375 C126.55953857 136.2045874 127.2636084 135.60058105 127.98901367 134.97827148 C136.2060589 127.38623641 137.57864916 118.67073189 139.0625 108.0625 C154.52832649 114.87156963 167.51178855 126.16349716 177.0625 140.0625 C179.0381562 137.09901571 179.32626859 136.38229627 179.4765625 133.05078125 C179.51523437 132.29345703 179.55390625 131.53613281 179.59375 130.75585938 C179.6246875 129.97017578 179.655625 129.18449219 179.6875 128.375 C179.72617187 127.57771484 179.76484375 126.78042969 179.8046875 125.95898438 C179.89882494 123.99386525 179.98174632 122.0282146 180.0625 120.0625 C184.59561915 124.10271314 187.23132309 128.43947705 190 133.8125 C190.4338501 134.64869873 190.8677002 135.48489746 191.31469727 136.34643555 C198.43931399 150.41380343 205.02304849 167.05335845 204.0625 183.0625 C208.3526415 179.36410215 210.63572814 175.19581327 211.39526367 169.61938477 C211.57770897 166.95289571 211.68267577 164.29681016 211.75 161.625 C211.80124023 160.24151367 211.80124023 160.24151367 211.85351562 158.83007812 C211.93532994 156.57434049 212.00469122 154.31895881 212.0625 152.0625 C214.83079938 155.34541913 216.95527018 158.5057712 218.8125 162.375 C219.24046875 163.25800781 219.6684375 164.14101563 220.109375 165.05078125 C220.42390625 165.71464844 220.7384375 166.37851562 221.0625 167.0625 C221.3925 167.0625 221.7225 167.0625 222.0625 167.0625 C222.80812657 150.32732598 219.70367346 136.51702697 213.0625 121.0625 C212.7948584 120.42763672 212.5272168 119.79277344 212.25146484 119.13867188 C204.8934117 101.87155223 194.50078606 87.03346586 182.0625 73.0625 C181.38058594 72.25941406 180.69867187 71.45632813 179.99609375 70.62890625 C176.92857495 67.01811199 173.92003724 63.86798163 170.0625 61.0625 C170.3925 60.4025 170.7225 59.7425 171.0625 59.0625 C179.51542915 64.17830081 187.37220934 69.88300499 195.0625 76.0625 C195.86324951 76.70445312 195.86324951 76.70445312 196.68017578 77.359375 C209.44004919 87.66975644 221.00426372 99.08590684 231.0625 112.0625 C231.87203125 113.06667969 232.6815625 114.07085937 233.515625 115.10546875 C239.82493458 122.99635401 245.0857861 131.28086832 250.0625 140.0625 C250.40522949 140.65224609 250.74795898 141.24199219 251.10107422 141.84960938 C262.84970445 162.11866794 271.83119818 185.34454741 270.0625 209.0625 C269.7325 210.0525 269.4025 211.0425 269.0625 212.0625 C267.203125 211.81640625 267.203125 211.81640625 265.0625 211.0625 C263.796875 209.21484375 263.796875 209.21484375 262.8125 207 C262.47734375 206.26652344 262.1421875 205.53304687 261.796875 204.77734375 C261.55453125 204.21144531 261.3121875 203.64554688 261.0625 203.0625 C261.03671875 204.35542969 261.0109375 205.64835938 260.984375 206.98046875 C260.24475622 232.6593403 260.24475622 232.6593403 251.52734375 241.79296875 C248.93414668 244.04040621 247.22834131 245.03698595 243.8125 245.5625 C238.74663517 244.88705136 236.33599143 242.89109721 233.0625 239.0625 C228.17285817 231.61087331 225.86065099 222.84216088 225.0625 214.0625 C223.99 214.165625 222.9175 214.26875 221.8125 214.375 C218.0625 214.0625 218.0625 214.0625 216 211.9375 C213.9869721 208.95042634 212.636062 206.09567062 211.3125 202.75 C210.67054688 201.14705078 210.67054688 201.14705078 210.015625 199.51171875 C209.70109375 198.70347656 209.3865625 197.89523437 209.0625 197.0625 C208.58039062 197.62839844 208.09828125 198.19429687 207.6015625 198.77734375 C206.96992187 199.51082031 206.33828125 200.24429688 205.6875 201 C204.74777344 202.09634766 204.74777344 202.09634766 203.7890625 203.21484375 C201.22598072 205.95768919 199.39853503 206.27806822 195.75 206.4375 C192.3127866 206.37161093 191.28548837 206.21807328 188.375 204.1875 C180.0625 192.95439189 180.0625 192.95439189 180.0625 189.0625 C179.4025 189.0625 178.7425 189.0625 178.0625 189.0625 C177.85625 189.619375 177.65 190.17625 177.4375 190.75 C174.86141048 195.08251419 170.68937116 198.14675297 166.0625 200.0625 C161.48542026 200.70254692 157.41724851 200.68097215 153.1875 198.75 C147.85604343 192.00727552 146.37325362 182.88149969 144.54467773 174.63378906 C143.62313165 170.64289598 142.74531217 167.21033295 140.0625 164.0625 C126.64043439 160.78882546 109.41208669 167.46533609 98.01953125 174.12890625 C83.5878136 183.56576257 72.32595825 196.49646369 68.46923828 213.71044922 C67.07338152 221.22878841 66.75855793 228.55469639 66.8125 236.1875 C66.80476563 237.28964844 66.79703125 238.39179687 66.7890625 239.52734375 C66.81189625 249.15176993 68.25493252 257.82663632 71.6875 266.8125 C71.94547363 267.49006348 72.20344727 268.16762695 72.46923828 268.86572266 C76.90155268 280.08640767 83.156766 289.93726448 91.0625 299.0625 C90.7325 299.7225 90.4025 300.3825 90.0625 301.0625 C77.87447134 293.55069458 66.36673923 285.39711325 55.48828125 276.09375 C53.04052675 273.96920803 53.04052675 273.96920803 50.0625 272.0625 C48.53032432 270.25914279 47.18140205 268.35778703 45.79296875 266.44140625 C44.61615433 264.82361848 43.40893234 263.22761129 42.17578125 261.65234375 C24.75673574 238.96309587 18.1329456 212.01760492 21.33056641 183.6875 C24.19187878 166.59247387 34.62890181 150.6117648 48.5234375 140.4296875 C61.92712903 131.19516746 75.75279616 126.51884321 92.0625 127.0625 C82.74278758 106.12055798 67.49366012 95.10160648 46.79296875 86.7421875 C35.14977873 82.62205473 23.59350855 81.69690644 11.3125 81.75 C10.32320999 81.75223572 10.32320999 81.75223572 9.31393433 81.7545166 C-0.83645848 81.79570901 -10.12506221 82.46738308 -19.9375 85.0625 C-21.16597656 85.35253906 -22.39445312 85.64257812 -23.66015625 85.94140625 C-48.52746394 92.08751436 -70.52773448 103.29704242 -89.9375 120.0625 C-90.9171875 120.90683594 -91.896875 121.75117188 -92.90625 122.62109375 C-111.14937539 138.65605804 -124.31191441 159.26114538 -136.86279297 179.85644531 C-152.62115351 205.61484095 -170.07306049 229.87656077 -190.375 252.25 C-190.87136963 252.80333008 -191.36773926 253.35666016 -191.87915039 253.92675781 C-194.35201872 256.61460309 -196.49625967 258.73644285 -199.9375 260.0625 C-199.9375 260.7225 -199.9375 261.3825 -199.9375 262.0625 C-201.1953125 263.3671875 -201.1953125 263.3671875 -203.0625 264.9375 C-203.79339844 265.55753906 -204.52429688 266.17757813 -205.27734375 266.81640625 C-206.15519531 267.55761719 -207.03304687 268.29882812 -207.9375 269.0625 C-209.00261631 269.98676892 -210.06633407 270.91265113 -211.12890625 271.83984375 C-230.54308202 288.73614007 -251.32287817 303.73803638 -273.9375 316.0625 C-274.80681152 316.53896973 -275.67612305 317.01543945 -276.57177734 317.50634766 C-330.84407949 347.0625 -330.84407949 347.0625 -345.9375 347.0625 C-345.9375 367.8525 -345.9375 388.6425 -345.9375 410.0625 C-346.2675 410.0625 -346.5975 410.0625 -346.9375 410.0625 C-347.33524165 391.72146017 -347.63469118 373.38154407 -347.81830692 355.03711891 C-347.90584502 346.5185566 -348.02508923 338.00267847 -348.2199707 329.48583984 C-348.38982415 322.05922969 -348.4991784 314.63456306 -348.53700441 307.20606458 C-348.55911062 303.27413458 -348.61071995 299.34776204 -348.73491096 295.41762161 C-349.4607857 271.53345278 -349.4607857 271.53345278 -345.30662155 265.81911469 C-341.36512982 262.32804384 -337.05413211 260.51379757 -332.09971428 258.89170456 C-328.52053603 257.51909734 -325.60213221 255.29602008 -322.5625 253 C-321.96255942 252.56044165 -321.36261885 252.12088329 -320.74449825 251.66800499 C-304.43040695 239.70796148 -288.89785075 225.60395234 -275.76953125 210.17578125 C-273.88825219 208.00569176 -271.94760902 205.89711028 -269.99365234 203.79248047 C-264.38356496 197.74598915 -259.0872199 191.50925756 -253.9375 185.0625 C-253.3290625 184.31097656 -252.720625 183.55945313 -252.09375 182.78515625 C-248.35534593 178.15175291 -244.69194275 173.4628395 -241.04638672 168.75634766 C-233.80881933 159.41380688 -226.42963527 150.20173399 -218.9375 141.0625 C-218.11378906 140.05445313 -217.29007813 139.04640625 -216.44140625 138.0078125 C-214.97405125 136.21240066 -213.50536896 134.41807249 -212.03515625 132.625 C-210.62232406 130.89908209 -209.21354291 129.16984098 -207.80859375 127.4375 C-191.38330751 107.22176309 -191.38330751 107.22176309 -183.48828125 99.609375 C-181.83087921 97.95614778 -180.3276415 96.22175422 -178.8125 94.4375 C-171.8002374 86.31720494 -164.04486253 78.64492487 -155.859375 71.7109375 C-154.49033043 70.53667569 -153.1491349 69.32961245 -151.828125 68.1015625 C-127.52058793 45.50697267 -98.98349186 28.74600445 -68.9375 15.0625 C-68.27266602 14.75940918 -67.60783203 14.45631836 -66.92285156 14.14404297 C-51.00756442 7.05450597 -33.08687334 3.6220506 -15.89868164 1.3293457 C-14.04194923 1.07671175 -12.19057468 0.78557156 -10.33984375 0.4921875 C-6.85199419 0.05170133 -3.51342588 -0.03622089 0 0 Z " fill="#7DA9A6" transform="translate(518.9375,311.9375)"/>
<path d="M0 0 C28.05 0 56.1 0 85 0 C85 27.72 85 55.44 85 84 C113.05 84 141.1 84 170 84 C170 56.28 170 28.56 170 0 C198.05 0 226.1 0 255 0 C255 27.72 255 55.44 255 84 C283.71 84 312.42 84 342 84 C342 140.43 342 196.86 342 255 C313.29 255 284.58 255 255 255 C255 226.95 255 198.9 255 170 C226.62 170 198.24 170 169 170 C169 198.05 169 226.1 169 255 C141.61 255.33 114.22 255.66 86 256 C85.67 275.14 85.34 294.28 85 314 C66.89045232 314 49.01694827 311.40871762 31.25 308.0625 C29.96794678 307.82192871 28.68589355 307.58135742 27.36499023 307.33349609 C18.12760634 305.53854573 9.1571519 303.28928798 0 301 C0 286.15 0 271.3 0 256 C27.72 255.67 55.44 255.34 84 255 C84.495 235.2 84.495 235.2 85 215 C88.465 210.545 88.465 210.545 92 206 C97.30970801 195.59841816 96.81247926 183.39835138 97 172 C99.19018147 174.0320017 100.16431065 175.34231384 101.5 178.125 C102.73106508 181.29636171 102.73106508 181.29636171 106 182 C108.21122402 138.56173266 83.47740588 100.04924881 55.57080078 68.73193359 C40.3064122 51.90172336 22.14708987 38.91559269 3.23046875 26.49609375 C1 25 1 25 0 24 C0 16.08 0 8.16 0 0 Z " fill="#FEFEFE" transform="translate(682,342)"/>
<path d="M0 0 C56.1 0 112.2 0 170 0 C170 2.31 170 4.62 170 7 C198.05 7 226.1 7 255 7 C255 35.05 255 63.1 255 92 C226.62 92 198.24 92 169 92 C169 63.95 169 35.9 169 7 C113.23 7 57.46 7 0 7 C0 4.69 0 2.38 0 0 Z M0 92 C55.77 92 111.54 92 169 92 C169 119.72 169 147.44 169 176 C141.28 176 113.56 176 85 176 C85 204.71 85 233.42 85 263 C28.9 263 -27.2 263 -85 263 C-85 234.29 -85 205.58 -85 176 C-56.95 176 -28.9 176 0 176 C0 148.28 0 120.56 0 92 Z " fill="#FEFEFE" transform="translate(682,761)"/>
<path d="M0 0 C0.33 0 0.66 0 1 0 C1 5.61 1 11.22 1 17 C14.86 17 28.72 17 43 17 C43 39.11 43 61.22 43 84 C-181.07 84 -405.14 84 -636 84 C-636 71.46 -636 58.92 -636 46 C-426.12 46 -216.24 46 0 46 C0 30.82 0 15.64 0 0 Z " fill="#ADADAD" transform="translate(851,676)"/>
<path d="M0 0 C27.72 0 55.44 0 84 0 C84.226875 10.3125 84.45375 20.625 84.6875 31.25 C84.78764404 34.48200195 84.88778809 37.71400391 84.9909668 41.04394531 C85.02312763 43.63862096 85.05115001 46.23335259 85.07421875 48.828125 C85.10296585 49.4851239 85.13171295 50.1421228 85.16133118 50.81903076 C85.46474853 58.13190501 85.06117416 63.49673531 80.20901966 69.08210373 C77.89677854 71.49726929 75.46802802 73.74313864 73 76 C67.41321321 81.92557762 62.27727898 88.11278199 57.296875 94.54638672 C53.98314088 98.8067381 50.53927239 102.92575451 47 107 C41.09096993 113.81920444 35.51824013 120.8630523 30 128 C14.36001898 148.1888938 14.36001898 148.1888938 7 157 C6.58186035 157.50305664 6.1637207 158.00611328 5.73291016 158.52441406 C-0.52600717 166.04607538 -6.97503601 173.35136063 -13.63378906 180.52050781 C-15.44555479 182.48249857 -17.2328139 184.46648615 -19.0234375 186.44775391 C-28.67548984 197.08663096 -38.60591989 207.20656585 -50 216 C-50.95519531 216.74894531 -51.91039062 217.49789062 -52.89453125 218.26953125 C-59.98559091 223.72490742 -67.30955513 228.45144583 -75 233 C-75.74894531 233.45761719 -76.49789062 233.91523437 -77.26953125 234.38671875 C-80.0829446 236.07476676 -81.65537175 237 -85 237 C-85 186.84 -85 136.68 -85 85 C-79.56484542 84.32060568 -74.53510025 83.85789844 -69.11523438 83.88647461 C-68.3727948 83.88632858 -67.63035522 83.88618256 -66.86541748 83.8860321 C-64.4414973 83.88672191 -62.01765655 83.89447008 -59.59375 83.90234375 C-57.90124554 83.90421125 -56.20874054 83.90563358 -54.51623535 83.90663147 C-50.08413168 83.91043052 -45.65206131 83.92023823 -41.2199707 83.93133545 C-36.68831838 83.941606 -32.15666063 83.94614113 -27.625 83.95117188 C-18.74998545 83.96186308 -9.87499551 83.97890778 -1 84 C-1.00222061 83.02138504 -1.00444122 82.04277008 -1.00672913 81.03450012 C-1.02700658 71.80903699 -1.04199436 62.58357839 -1.05181217 53.35809803 C-1.05702928 48.61526879 -1.0641057 43.87245755 -1.07543945 39.12963867 C-1.08630992 34.55201223 -1.09228567 29.97440311 -1.09487724 25.39676476 C-1.09672398 23.65088313 -1.10033018 21.90500244 -1.10573006 20.15912819 C-1.11299565 17.71259137 -1.11398861 15.26612596 -1.11352539 12.81958008 C-1.11712067 12.09884811 -1.12071594 11.37811615 -1.12442017 10.63554382 C-1.11670533 6.86646532 -0.74896918 3.74484591 0 0 Z " fill="#FEFEFE" transform="translate(257,342)"/>
<path d="M0 0 C27.72 0 55.44 0 84 0 C84 20.79 84 41.58 84 63 C86.97 63.66 89.94 64.32 93 65 C123.39300641 74.55527149 150.06585632 91.25707548 174 112 C174.99 112.66 175.98 113.32 177 114 C177.33 114.99 177.66 115.98 178 117 C179.42855449 118.36997109 179.42855449 118.36997109 181.25 119.75 C205.19834852 140.23439096 225.5252167 174.62840095 230 206 C230.10973373 208.9391924 230.09454419 211.87182951 230.0625 214.8125 C230.05798828 215.60076172 230.05347656 216.38902344 230.04882812 217.20117188 C230.03711312 219.13414761 230.01917998 221.06708393 230 223 C229.01 223 228.02 223 227 223 C224.69 218.71 222.38 214.42 220 210 C219.98582031 211.18335938 219.97164062 212.36671875 219.95703125 213.5859375 C219.51220887 231.26108569 219.51220887 231.26108569 214 238 C213.01 238.33 212.02 238.66 211 239 C210.84144531 237.97003906 210.68289063 236.94007813 210.51953125 235.87890625 C207.15272278 214.90665071 201.01985699 194.15831154 188 177 C187.92652344 178.66289062 187.92652344 178.66289062 187.8515625 180.359375 C187.77650785 181.82294065 187.70096119 183.28648112 187.625 184.75 C187.5940625 185.47960937 187.563125 186.20921875 187.53125 186.9609375 C187.3251506 190.73942656 187.08487157 193.77946668 185 197 C181.45103753 193.51475319 178.11570264 189.91031183 174.8125 186.1875 C166.65686258 177.2026625 157.63095036 170.84519607 147 165 C146.85304688 165.97839844 146.70609375 166.95679688 146.5546875 167.96484375 C144.62019336 179.69159149 140.53011044 188.36117436 131 196 C130.34 196 129.68 196 129 196 C128.97812622 195.04130005 128.97812622 195.04130005 128.95581055 194.06323242 C128.88030517 191.1041155 128.78399275 188.1460041 128.6875 185.1875 C128.66494141 184.18267578 128.64238281 183.17785156 128.61914062 182.14257812 C128.24534197 171.57427072 125.76088728 162.62763772 120.8125 153.3125 C120.44447266 152.59900391 120.07644531 151.88550781 119.69726562 151.15039062 C118.80754369 149.42872091 117.90517429 147.71359599 117 146 C116.67 146.33 116.34 146.66 116 147 C116.02326732 149.11309538 116.05257888 151.22632862 116.11523438 153.33862305 C116.34637715 161.65117309 116.27013237 168.58445763 112 176 C109 176 109 176 107.48876953 174.68994141 C106.6938208 173.77994385 106.6938208 173.77994385 105.8828125 172.8515625 C105.28291504 172.18084717 104.68301758 171.51013184 104.06494141 170.8190918 C103.42476074 170.0950415 102.78458008 169.37099121 102.125 168.625 C95.60206324 161.47989715 89.00919749 155.47578862 81 150 C80.35305176 149.55317871 79.70610352 149.10635742 79.03955078 148.64599609 C69.10718628 141.84374599 58.91570771 136.05935244 48 131 C47.34676758 130.69078613 46.69353516 130.38157227 46.02050781 130.06298828 C23.42551621 119.41138184 1.8379577 116.7142183 -23 116 C-19.49044072 113.66029381 -16.11008605 112.90828184 -12.0625 112 C-11.29325195 111.82629883 -10.52400391 111.65259766 -9.73144531 111.47363281 C-8.18733543 111.12970863 -6.6422555 110.79010795 -5.09619141 110.45507812 C-3.37766459 110.08199008 -1.66285385 109.69182291 0.05078125 109.296875 C13.39119243 106.59404206 28.79336192 106.71553662 42 110 C42.62261719 110.15065918 43.24523437 110.30131836 43.88671875 110.45654297 C60.28500193 114.52097459 73.84254874 121.48276699 87 132 C88.485 132.99 88.485 132.99 90 134 C87.58438059 118.96947921 73.56583385 105.00116397 62 96 C54.42895381 90.58405042 46.46685524 85.88226773 38 82 C47.28759412 78.68457042 63.09535546 87.92327809 71.63085938 91.84082031 C80.88139741 96.36694919 89.39190426 102.21112446 97.296875 108.78515625 C100.87931068 111.72047566 104.55531095 114.52052876 108.25 117.3125 C108.92417969 117.8286084 109.59835937 118.3447168 110.29296875 118.87646484 C114.04373176 121.7034632 117.70009975 124.04367893 122 126 C114.14293838 111.18639959 104.87947511 98.81178374 92 88 C92.66 87.67 93.32 87.34 94 87 C108.57467789 93.37476837 121.96273607 105.0817559 133.78808594 115.53222656 C137.53360774 118.820712 141.40934097 121.84212348 145.41699219 124.8046875 C154.59061335 131.5885418 162.99952766 138.92995418 169.6328125 148.30859375 C170.98743991 150.29526072 170.98743991 150.29526072 174 151 C168.1127515 121.87361269 145.45236359 102.03644928 121.94921875 85.90625 C104.86597523 75.27452843 84.40018286 69.54162878 64.8125 65.875 C64.12936737 65.74582184 63.44623474 65.61664368 62.74240112 65.48355103 C41.47028923 61.47699278 20.60114609 60.48921763 -1 60 C1.33214148 58.79371992 3.49642139 57.8345262 6 57 C4.02 56.67 2.04 56.34 0 56 C0 37.52 0 19.04 0 0 Z " fill="#E8DDC2" transform="translate(512,256)"/>
<path d="M0 0 C28.05 0 56.1 0 85 0 C86 1 86 1 86.12304783 3.77800083 C86.12212604 5.0307175 86.12120424 6.28343416 86.12025452 7.57411194 C86.12110894 8.26917026 86.12196337 8.96422859 86.12284368 9.68034929 C86.12450049 12.02658986 86.11897387 14.37276008 86.11352539 16.71899414 C86.11324354 18.39399718 86.11340122 20.06900033 86.1139679 21.7440033 C86.11425594 26.30579279 86.10835814 30.86755623 86.10139394 35.42933965 C86.09516151 40.19129 86.09455669 44.9532409 86.09336853 49.7151947 C86.09025489 58.73915566 86.08204106 67.76310456 86.07201904 76.7870602 C86.05877398 88.97652588 86.05335826 101.16599483 86.04751682 113.35546589 C86.03810119 132.57031963 86.01818249 151.78514793 86 171 C57.62 171 29.24 171 0 171 C0 114.57 0 58.14 0 0 Z " fill="#FEFEFE" transform="translate(0,426)"/>
<path d="M0 0 C28.38 0 56.76 0 86 0 C86 27.72 86 55.44 86 84 C44.42 84.495 44.42 84.495 2 85 C1.67 113.38 1.34 141.76 1 171 C-27.05 171 -55.1 171 -84 171 C-84 142.29 -84 113.58 -84 84 C-56.28 84 -28.56 84 0 84 C0 56.28 0 28.56 0 0 Z " fill="#EAEAEA" transform="translate(851,853)"/>
<path d="M0 0 C28.38 0 56.76 0 86 0 C86 27.72 86 55.44 86 84 C57.95 84 29.9 84 1 84 C1 112.71 1 141.42 1 171 C-27.05 171 -55.1 171 -84 171 C-84 142.29 -84 113.58 -84 84 C-56.28 84 -28.56 84 0 84 C0 56.28 0 28.56 0 0 Z " fill="#EAEAEA" transform="translate(596,853)"/>
<path d="M0 0 C55.77 0 111.54 0 169 0 C169 28.05 169 56.1 169 85 C113.23 85 57.46 85 0 85 C0 56.95 0 28.9 0 0 Z " fill="#EAEAEA" transform="translate(682,768)"/>
<path d="M0 0 C28.05 0 56.1 0 85 0 C85 28.05 85 56.1 85 85 C56.62 85 28.24 85 -1 85 C-0.67 56.95 -0.34 28.9 0 0 Z M-85 85 C-57.28 85 -29.56 85 -1 85 C-1 112.72 -1 140.44 -1 169 C-28.72 169 -56.44 169 -85 169 C-85 141.28 -85 113.56 -85 85 Z " fill="#FEFEFE" transform="translate(597,768)"/>
<path d="M0 0 C55.77 0 111.54 0 169 0 C169 27.72 169 55.44 169 84 C141.28 84 113.56 84 85 84 C84.67 82.68 84.34 81.36 84 80 C83.505 81.98 83.505 81.98 83 84 C64.4697071 84.92967814 45.98858856 85.12280878 27.4375 85.0625 C18.383125 85.041875 9.32875 85.02125 0 85 C0 56.95 0 28.9 0 0 Z " fill="#E9E9E9" transform="translate(342,171)"/>
<path d="M0 0 C1.21510254 -0.00451172 2.43020508 -0.00902344 3.68212891 -0.01367188 C4.76155762 -0.01173828 5.84098633 -0.00980469 6.953125 -0.0078125 C7.86739258 -0.00668457 8.78166016 -0.00555664 9.72363281 -0.00439453 C11.75 0.125 11.75 0.125 12.75 1.125 C12.84507964 3.71142919 12.87555068 6.27094936 12.86352539 8.85766602 C12.86364593 9.68049796 12.86376646 10.50332991 12.86389065 11.35109615 C12.86314145 14.02705991 12.85551294 16.70295488 12.84765625 19.37890625 C12.84618685 21.02600064 12.84516613 22.67309548 12.84460449 24.32019043 C12.83935137 30.44263405 12.82539029 36.56506769 12.8125 42.6875 C12.791875 56.361875 12.77125 70.03625 12.75 84.125 C-28.335 84.62 -28.335 84.62 -70.25 85.125 C-70.58 113.175 -70.91 141.225 -71.25 170.125 C-99.3 170.125 -127.35 170.125 -156.25 170.125 C-156.25 142.075 -156.25 114.025 -156.25 85.125 C-128.2 84.795 -100.15 84.465 -71.25 84.125 C-71.25 56.735 -71.25 29.345 -71.25 1.125 C-17.13031997 0.02612325 -17.13031997 0.02612325 0 0 Z " fill="#FEFEFE" transform="translate(838.25,85.875)"/>
<path d="M0 0 C1.25271667 0.00092179 2.50543333 0.00184359 3.79611111 0.00279331 C4.49116943 0.00193889 5.18622776 0.00108446 5.90234846 0.00020415 C8.24858902 -0.00145266 10.59475925 0.00407396 12.94099331 0.00952244 C14.61599634 0.00980429 16.2909995 0.00964661 17.96600246 0.00907993 C22.52779196 0.00879189 27.0895554 0.01468969 31.65133882 0.02165389 C36.41328917 0.02788632 41.17524006 0.02849114 45.93719387 0.0296793 C54.96115483 0.03279294 63.98510373 0.04100677 73.00905937 0.05102879 C83.27974403 0.0621889 93.55042926 0.06770012 103.82111847 0.07272422 C124.9547536 0.08318936 146.0883722 0.10153525 167.22199917 0.12304783 C167.22199917 18.93304783 167.22199917 37.74304783 167.22199917 57.12304783 C160.29199917 58.11304783 153.36199917 59.10304783 146.22199917 60.12304783 C129.00639878 63.51932273 113.04535064 68.52543082 97.08918667 75.80273533 C96.39135067 76.12013676 95.69351467 76.43753819 94.97453213 76.76455784 C92.90947262 77.78375096 90.89398393 78.90439374 88.90916348 80.07217503 C78.24482306 86.20715873 69.51522192 87.21518588 57.37824917 86.90429783 C55.62994415 86.88932924 53.88160499 86.87796414 52.13325405 86.86999607 C47.58850621 86.8398235 43.04588833 86.76157695 38.50196743 86.67236423 C33.84253137 86.58970623 29.18274234 86.55381605 24.52278042 86.51367283 C15.42159725 86.42853617 6.32197704 86.29246946 -2.77800083 86.12304783 C-3.89634912 76.71664668 -3.92459348 67.35119363 -3.91081333 57.89648533 C-3.91148817 56.25550414 -3.91245969 54.61452306 -3.9137125 52.97354221 C-3.91517686 49.55966317 -3.91307303 46.1458105 -3.90837193 42.73193455 C-3.90262988 38.34808578 -3.90598958 33.96429764 -3.91194439 29.58045101 C-3.91554569 26.2039859 -3.9144142 22.82753536 -3.9118166 19.45106983 C-3.91114846 17.83306591 -3.9119718 16.21506068 -3.91429615 14.5970583 C-3.91682044 12.34966313 -3.9129874 10.10236901 -3.90739536 7.85498142 C-3.90659977 6.57577824 -3.90580418 5.29657505 -3.90498447 3.97860813 C-3.73541774 0.16545533 -3.73541774 0.16545533 0 0 Z " fill="#FEFEFE" transform="translate(344.778000831604,255.87695217132568)"/>
<path d="M0 0 C1.216875 -0.06058594 2.43375 -0.12117188 3.6875 -0.18359375 C7 0.4375 7 0.4375 9.3125 2.984375 C11.10045196 6.64305448 12.16064349 10.16959792 13 14.125 C13.33349493 15.54125159 13.67075872 16.95662081 14.01171875 18.37109375 C14.17720215 19.06058105 14.34268555 19.75006836 14.51318359 20.46044922 C16.21979002 28.42300634 16.21979002 28.42300634 20.66796875 34.9609375 C23.61748515 36.73442071 26.67754062 37.66517392 30 38.4375 C30.02313598 49.09442625 30.04092152 59.75134655 30.05181217 70.40829277 C30.05703824 75.35635132 30.06413091 80.30439273 30.07543945 85.25244141 C30.0862781 90.02456964 30.09227892 94.79668136 30.09487724 99.56882095 C30.09672972 101.39254135 30.10034696 103.21626082 30.10573006 105.03997421 C30.11295343 107.58770475 30.11399039 110.13536639 30.11352539 112.68310547 C30.11712067 113.44267548 30.12071594 114.20224548 30.12442017 114.98483276 C30.11405216 120.20939568 30.11405216 120.20939568 29 122.4375 C18.43010524 122.71588631 7.86108569 122.92892403 -2.71173191 123.05924606 C-7.62172211 123.12180676 -12.52920016 123.20659822 -17.43774414 123.34277344 C-22.17772369 123.47344493 -26.91529284 123.54496176 -31.65693474 123.57602692 C-33.46295071 123.59815322 -35.26883851 123.64136918 -37.07382393 123.70626068 C-42.60199523 123.89704828 -47.64369326 123.92341112 -53 122.4375 C-56.63257583 118.872458 -58.32771888 115.19298596 -60 110.4375 C-60.65323219 108.88914834 -61.30677544 107.34092778 -61.9609375 105.79296875 C-62.44519632 104.40809102 -62.91702173 103.01878937 -63.375 101.625 C-63.62121094 100.92697266 -63.86742187 100.22894531 -64.12109375 99.50976562 C-67.03448293 90.98452024 -67.18238995 82.6874785 -67.1875 73.75 C-67.19974609 72.64205078 -67.21199219 71.53410156 -67.22460938 70.39257812 C-67.25934166 50.58360034 -61.52597825 34.82684741 -47.9140625 20.1953125 C-37.40182888 10.1520261 -24.79320036 5.13154102 -11 1.4375 C-10.33226562 1.23898437 -9.66453125 1.04046875 -8.9765625 0.8359375 C-5.98239957 0.23237106 -3.05056366 0.10664047 0 0 Z " fill="#FEFEFE" transform="translate(652,474.5625)"/>
<path d="M0 0 C27.72 0 55.44 0 84 0 C84.226875 10.3125 84.45375 20.625 84.6875 31.25 C84.78764404 34.48200195 84.88778809 37.71400391 84.9909668 41.04394531 C85.02312763 43.63862096 85.05115001 46.23335259 85.07421875 48.828125 C85.10296585 49.4851239 85.13171295 50.1421228 85.16133118 50.81903076 C85.46474853 58.13190501 85.06117416 63.49673531 80.20901966 69.08210373 C77.89677854 71.49726929 75.46802802 73.74313864 73 76 C67.41321321 81.92557762 62.27727898 88.11278199 57.296875 94.54638672 C53.98314088 98.8067381 50.53927239 102.92575451 47 107 C41.09096993 113.81920444 35.51824013 120.8630523 30 128 C27.62658264 131.06372949 25.25138187 134.12606942 22.875 137.1875 C22.27824463 137.95666748 21.68148926 138.72583496 21.06665039 139.51831055 C17.11010083 144.60608428 13.08371204 149.62193369 8.97265625 154.5859375 C6.34215389 157.80504732 3.82054922 161.10293147 1.3125 164.41796875 C0.879375 164.94003906 0.44625 165.46210938 0 166 C-0.33 166 -0.66 166 -1 166 C-1.02335415 145.09456305 -1.04099156 124.18912826 -1.05181217 103.28368092 C-1.05696977 93.57705563 -1.06400229 83.87043845 -1.07543945 74.16381836 C-1.08540263 65.70412827 -1.09185733 57.24444405 -1.09408849 48.78474826 C-1.09539282 44.3048894 -1.09846113 39.82504734 -1.10573006 35.34519386 C-1.11251601 31.12884659 -1.11461169 26.91252302 -1.11310768 22.69617081 C-1.11338285 21.14860213 -1.1153727 19.60103266 -1.11920547 18.0534687 C-1.12418292 15.94010175 -1.12298332 13.82682424 -1.12025452 11.7134552 C-1.12117631 10.5307948 -1.1220981 9.3481344 -1.12304783 8.12963581 C-1 5 -1 5 0 0 Z " fill="#FEFEFE" transform="translate(257,342)"/>
<path d="M0 0 C1.326965 4.83394391 2.22648386 9.52611283 2.875 14.5 C3.70454193 20.12390235 4.99592908 24.17528004 8 29 C12.47372534 31.98248356 16.75377107 31.60815224 22 31 C26.03442942 29.52699789 29.05808272 27.09675503 32 24 C32.66 24 33.32 24 34 24 C34.33 22.68 34.66 21.36 35 20 C35.66 20 36.32 20 37 20 C37.4021875 19.195625 37.4021875 19.195625 37.8125 18.375 C38.204375 17.59125 38.59625 16.8075 39 16 C39.433125 14.948125 39.86625 13.89625 40.3125 12.8125 C42 10 42 10 44.296875 9.11328125 C48.89427491 8.92061565 51.21274421 11.75578071 54.56640625 14.62109375 C59.28147921 19.23021001 62.36664248 24.34047669 64.9375 30.375 C66.52090698 34.0871367 68.33589091 37.57772058 70.375 41.0625 C70.91898438 42.00222656 71.46296875 42.94195312 72.0234375 43.91015625 C73.8939651 46.34683446 73.8939651 46.34683446 77.2265625 46.30859375 C78.14179687 46.20675781 79.05703125 46.10492188 80 46 C82 51.33333333 84 56.66666667 86 62 C85.34 62 84.68 62 84 62 C83.79375 62.556875 83.5875 63.11375 83.375 63.6875 C80.79891048 68.02001419 76.62687116 71.08425297 72 73 C67.42292026 73.64004692 63.35474851 73.61847215 59.125 71.6875 C53.79354343 64.94477552 52.31075362 55.81899969 50.48217773 47.57128906 C49.56063165 43.58039598 48.68281217 40.14783295 46 37 C32.57793439 33.72632546 15.34958669 40.40283609 3.95703125 47.06640625 C-10.4746864 56.50326257 -21.73654175 69.43396369 -25.59326172 86.64794922 C-26.98911848 94.16628841 -27.30394207 101.49219639 -27.25 109.125 C-27.25773438 110.22714844 -27.26546875 111.32929687 -27.2734375 112.46484375 C-27.25060375 122.08926993 -25.80756748 130.76413632 -22.375 139.75 C-22.11702637 140.42756348 -21.85905273 141.10512695 -21.59326172 141.80322266 C-17.16094732 153.02390767 -10.905734 162.87476448 -3 172 C-3.33 172.66 -3.66 173.32 -4 174 C-16.18802866 166.48819458 -27.69576077 158.33461325 -38.57421875 149.03125 C-41.02197325 146.90670803 -41.02197325 146.90670803 -44 145 C-45.53217568 143.19664279 -46.88109795 141.29528703 -48.26953125 139.37890625 C-49.44634567 137.76111848 -50.65356766 136.16511129 -51.88671875 134.58984375 C-69.30576426 111.90059587 -75.9295544 84.95510492 -72.73193359 56.625 C-69.87062122 39.52997387 -59.43359819 23.5492648 -45.5390625 13.3671875 C-31.3891933 3.61858576 -17.1387152 -0.60727731 0 0 Z " fill="#AFB0AF" transform="translate(613,439)"/>
<path d="M0 0 C28.05 0 56.1 0 85 0 C85 28.38 85 56.76 85 86 C56.95 86 28.9 86 0 86 C0 93.59 0 101.18 0 109 C-8 103 -8 103 -11.01953125 100.69140625 C-16.84938855 96.24766887 -22.75701623 92.13131213 -29.015625 88.3125 C-29.67046875 87.879375 -30.3253125 87.44625 -31 87 C-31 86.67 -31 86.34 -31 86 C-16.15 85.505 -16.15 85.505 -1 85 C-0.67 56.95 -0.34 28.9 0 0 Z " fill="#EAEAE9" transform="translate(682,256)"/>
<path d="M0 0 C28.38 0 56.76 0 86 0 C86 28.71 86 57.42 86 87 C57.62 87 29.24 87 0 87 C0 58.29 0 29.58 0 0 Z " fill="#FEFEFE" transform="translate(426,937)"/>
<path d="M0 0 C28.38 0 56.76 0 86 0 C86 28.71 86 57.42 86 87 C57.62 87 29.24 87 0 87 C0 58.29 0 29.58 0 0 Z " fill="#FEFEFE" transform="translate(86,937)"/>
<path d="M0 0 C28.38 0 56.76 0 86 0 C86 28.71 86 57.42 86 87 C57.62 87 29.24 87 0 87 C0 58.29 0 29.58 0 0 Z " fill="#EAEAEA" transform="translate(0,937)"/>
<path d="M0 0 C28.71 0 57.42 0 87 0 C87 28.38 87 56.76 87 86 C58.29 86 29.58 86 0 86 C0 57.62 0 29.24 0 0 Z " fill="#FEFEFE" transform="translate(937,682)"/>
<path d="M0 0 C28.71 0 57.42 0 87 0 C87 28.38 87 56.76 87 86 C58.29 86 29.58 86 0 86 C0 57.62 0 29.24 0 0 Z " fill="#EAEAEA" transform="translate(937,0)"/>
<path d="M0 0 C28.71 0 57.42 0 87 0 C87 28.38 87 56.76 87 86 C65.7459375 86.0309375 65.7459375 86.0309375 44.0625 86.0625 C37.34144897 86.07615601 37.34144897 86.07615601 30.48461914 86.09008789 C25.03015137 86.09460449 25.03015137 86.09460449 22.47996521 86.09544373 C20.6916733 86.09698339 18.90338245 86.10050877 17.11509705 86.10557556 C14.41273178 86.11285215 11.71043017 86.11390745 9.00805664 86.11352539 C8.20597558 86.1171235 7.40389452 86.12072161 6.57750797 86.12442875 C1.11402634 86.11402634 1.11402634 86.11402634 0 85 C-0.09511403 82.35258118 -0.12554328 79.73144543 -0.11352539 77.08374023 C-0.11364593 76.24108392 -0.11376646 75.3984276 -0.11389065 74.53023624 C-0.11314142 71.78966233 -0.10551277 69.04915557 -0.09765625 66.30859375 C-0.09618686 64.62178582 -0.09516613 62.93497743 -0.09460449 61.24816895 C-0.08935126 54.97793903 -0.07539018 48.70771886 -0.0625 42.4375 C-0.0315625 21.4309375 -0.0315625 21.4309375 0 0 Z " fill="#FEFEFE" transform="translate(937,256)"/>
<path d="M0 0 C28.38 0 56.76 0 86 0 C86 28.38 86 56.76 86 86 C57.62 86 29.24 86 0 86 C0 57.62 0 29.24 0 0 Z " fill="#FEFEFE" transform="translate(0,682)"/>
<path d="M0 0 C28.38 0 56.76 0 86 0 C86 28.38 86 56.76 86 86 C57.62 86 29.24 86 0 86 C0 57.62 0 29.24 0 0 Z " fill="#FEFEFE" transform="translate(0,256)"/>
<path d="M0 0 C28.38 0 56.76 0 86 0 C86 28.38 86 56.76 86 86 C57.62 86 29.24 86 0 86 C0 57.62 0 29.24 0 0 Z " fill="#EAEAEA" transform="translate(426,0)"/>
<path d="M0 0 C28.38 0 56.76 0 86 0 C86 28.38 86 56.76 86 86 C57.62 86 29.24 86 0 86 C0 57.62 0 29.24 0 0 Z " fill="#FEFEFE" transform="translate(86,0)"/>
<path d="M0 0 C28.38 0 56.76 0 86 0 C86 28.38 86 56.76 86 86 C57.62 86 29.24 86 0 86 C0 57.62 0 29.24 0 0 Z " fill="#E9E9E9" transform="translate(0,0)"/>
<path d="M0 0 C28.05 0 56.1 0 85 0 C85 28.71 85 57.42 85 87 C56.95 87 28.9 87 0 87 C0 58.29 0 29.58 0 0 Z " fill="#FEFEFE" transform="translate(597,937)"/>
<path d="M0 0 C28.71 0 57.42 0 87 0 C87 28.05 87 56.1 87 85 C58.29 85 29.58 85 0 85 C0 56.95 0 28.9 0 0 Z " fill="#E9E9E9" transform="translate(937,768)"/>
<path d="M0 0 C28.71 0 57.42 0 87 0 C87 28.05 87 56.1 87 85 C58.29 85 29.58 85 0 85 C0 56.95 0 28.9 0 0 Z " fill="#E9E9E9" transform="translate(937,171)"/>
<path d="M0 0 C1.1750165 0.00539716 1.1750165 0.00539716 2.37377071 0.01090336 C3.62288691 0.01072256 3.62288691 0.01072256 4.89723778 0.0105381 C7.60550661 0.01128731 10.31370748 0.0189159 13.02196407 0.0267725 C14.68891523 0.02824189 16.35586685 0.02926262 18.02281857 0.02982426 C24.21915533 0.03507744 30.41548224 0.04903851 36.61180782 0.06192875 C50.45118282 0.08255375 64.29055782 0.10317875 78.54930782 0.12442875 C78.54930782 28.83442875 78.54930782 57.54442875 78.54930782 87.12442875 C50.49930782 87.12442875 22.44930782 87.12442875 -6.45069218 87.12442875 C-6.49080099 65.70186803 -6.49080099 65.70186803 -6.4995203 56.60294437 C-6.50550891 50.38296505 -6.5126097 44.16300037 -6.52613163 37.94303226 C-6.53695994 32.93100607 -6.54296889 27.91899557 -6.54556942 22.90695858 C-6.54742377 20.99030593 -6.55104457 19.07365418 -6.55642223 17.15700817 C-6.56363192 14.48214802 -6.56468315 11.80735361 -6.56421757 9.13248539 C-6.56781284 8.33191715 -6.57140812 7.53134892 -6.57511234 6.70652103 C-6.56298446 0.31033109 -6.41041157 0.01249539 0 0 Z " fill="#FEFEFE" transform="translate(858.4506921768188,936.8755712509155)"/>
<path d="M0 0 C28.38 0 56.76 0 86 0 C86 28.05 86 56.1 86 85 C57.62 85 29.24 85 0 85 C0 56.95 0 28.9 0 0 Z " fill="#E9EAEA" transform="translate(0,768)"/>
<path d="M0 0 C28.38 0 56.76 0 86 0 C86 28.05 86 56.1 86 85 C57.62 85 29.24 85 0 85 C0 56.95 0 28.9 0 0 Z " fill="#E9EAEA" transform="translate(0,171)"/>
<path d="M0 0 C28.05 0 56.1 0 85 0 C85 28.38 85 56.76 85 86 C56.95 86 28.9 86 0 86 C0 57.62 0 29.24 0 0 Z " fill="#FEFEFE" transform="translate(852,0)"/>
<path d="M0 0 C28.05 0 56.1 0 85 0 C85 28.38 85 56.76 85 86 C56.95 86 28.9 86 0 86 C0 57.62 0 29.24 0 0 Z " fill="#FEFEFE" transform="translate(682,0)"/>
<path d="M0 0 C28.05 0 56.1 0 85 0 C85 28.38 85 56.76 85 86 C56.95 86 28.9 86 0 86 C0 57.62 0 29.24 0 0 Z " fill="#E9EAE9" transform="translate(597,0)"/>
<path d="M0 0 C27.72 0 55.44 0 84 0 C84 28.71 84 57.42 84 87 C56.28 87 28.56 87 0 87 C0 58.29 0 29.58 0 0 Z " fill="#EAEAEA" transform="translate(172,937)"/>
<path d="M0 0 C27.72 0 55.44 0 84 0 C84 28.71 84 57.42 84 87 C56.28 87 28.56 87 0 87 C0 58.29 0 29.58 0 0 Z " fill="#E9EAEA" transform="translate(682,937)"/>
<path d="M0 0 C28.71 0 57.42 0 87 0 C87 27.72 87 55.44 87 84 C58.29 84 29.58 84 0 84 C0 56.28 0 28.56 0 0 Z " fill="#FEFEFE" transform="translate(937,853)"/>
<path d="M0 0 C1.20085236 0.00539291 1.20085236 0.00539291 2.42596436 0.01089478 C3.26491745 0.01074875 4.10387054 0.01060272 4.96824646 0.01045227 C7.75487816 0.01115167 10.54144388 0.01894531 13.32806396 0.02676392 C15.25477563 0.028628 17.18148777 0.03005195 19.10820007 0.03105164 C24.18978169 0.03487758 29.27133491 0.04470851 34.35290527 0.05575562 C40.44434268 0.06776231 46.53578957 0.07237161 52.62723541 0.07820892 C61.89081262 0.08792023 71.15432748 0.10707625 80.41790771 0.12442017 C80.41790771 27.84442017 80.41790771 55.56442017 80.41790771 84.12442017 C51.70790771 84.12442017 22.99790771 84.12442017 -6.58209229 84.12442017 C-6.60271729 70.45004517 -6.62334229 56.77567017 -6.64459229 42.68692017 C-6.65369629 38.36284058 -6.66280029 34.03876099 -6.67218018 29.58364868 C-6.67669678 24.3196106 -6.67669678 24.3196106 -6.67753601 21.8584137 C-6.67907562 20.13262169 -6.68260088 18.40683079 -6.68766785 16.68104553 C-6.69494488 14.07303995 -6.69599972 11.46510033 -6.69561768 8.85708618 C-6.70101484 7.69612222 -6.70101484 7.69612222 -6.70652103 6.51170444 C-6.69394172 0.13491571 -6.35581822 0.01205133 0 0 Z " fill="#E9E9E9" transform="translate(943.5820922851563,341.8755798339844)"/>
<path d="M0 0 C0.81304029 -0.00012053 1.62608059 -0.00024107 2.46375847 -0.00036526 C5.10200589 0.0003826 7.74018314 0.00800508 10.37841797 0.01586914 C12.00463833 0.01733895 13.63085915 0.01835942 15.25708008 0.0189209 C21.29492908 0.02416923 27.33276796 0.03813037 33.37060547 0.05102539 C53.60373047 0.08196289 53.60373047 0.08196289 74.24560547 0.11352539 C74.24560547 28.82352539 74.24560547 57.53352539 74.24560547 87.11352539 C46.52560547 87.11352539 18.80560547 87.11352539 -9.75439453 87.11352539 C-9.75439453 58.73352539 -9.75439453 30.35352539 -9.75439453 1.11352539 C-6.65926194 -0.4340409 -3.39578885 -0.01605554 0 0 Z " fill="#EAEAEA" transform="translate(351.75439453125,936.886474609375)"/>
<path d="M0 0 C0.33 0 0.66 0 1 0 C1 33.66 1 67.32 1 102 C-27.38 102 -55.76 102 -85 102 C-85 74.28 -85 46.56 -85 18 C-56.95 18 -28.9 18 0 18 C0 12.06 0 6.12 0 0 Z " fill="#FEFEFE" transform="translate(171,580)"/>
<path d="M0 0 C28.38 0 56.76 0 86 0 C85.67 28.05 85.34 56.1 85 85 C56.95 85 28.9 85 0 85 C0 56.95 0 28.9 0 0 Z " fill="#FEFEFE" transform="translate(86,768)"/>
<path d="M0 0 C28.05 0 56.1 0 85 0 C85.185625 13.839375 85.37125 27.67875 85.5625 41.9375 C85.62381104 46.31378662 85.68512207 50.69007324 85.74829102 55.19897461 C85.81628418 60.52648926 85.81628418 60.52648926 85.8467865 63.01734924 C85.8691379 64.76399675 85.89349833 66.51061922 85.91941833 68.25721741 C85.95820316 70.89662093 85.99069245 73.53603267 86.02172852 76.17553711 C86.04117822 77.35055361 86.04117822 77.35055361 86.06102085 78.54930782 C86.0790671 80.36622945 86.04516981 82.18355029 86 84 C84.2234257 85.7765743 81.85112329 85.11987251 79.48589993 85.12442875 C78.29683088 85.11903159 78.29683088 85.11903159 77.08374023 85.11352539 C76.24108392 85.11364593 75.3984276 85.11376646 74.53023624 85.11389065 C71.78966233 85.11314142 69.04915557 85.10551277 66.30859375 85.09765625 C64.62178582 85.09618686 62.93497743 85.09516613 61.24816895 85.09460449 C54.97793903 85.08935126 48.70771886 85.07539018 42.4375 85.0625 C28.433125 85.041875 14.42875 85.02125 0 85 C0 56.95 0 28.9 0 0 Z " fill="#FEFEFE" transform="translate(86,171)"/>
<path d="M0 0 C28.05 0 56.1 0 85 0 C85 28.05 85 56.1 85 85 C56.95 85 28.9 85 0 85 C0 56.95 0 28.9 0 0 Z " fill="#FEFEFE" transform="translate(256,768)"/>
<path d="M0 0 C28.05 0 56.1 0 85 0 C85 28.05 85 56.1 85 85 C56.95 85 28.9 85 0 85 C0 56.95 0 28.9 0 0 Z " fill="#E9E9E9" transform="translate(852,256)"/>
<path d="M0 0 C28.05 0 56.1 0 85 0 C85 28.05 85 56.1 85 85 C56.95 85 28.9 85 0 85 C0 56.95 0 28.9 0 0 Z " fill="#EAEAEA" transform="translate(86,256)"/>
<path d="M0 0 C28.05 0 56.1 0 85 0 C85 28.05 85 56.1 85 85 C56.95 85 28.9 85 0 85 C0 56.95 0 28.9 0 0 Z " fill="#FEFEFE" transform="translate(852,171)"/>
<path d="M0 0 C28.38 0 56.76 0 86 0 C86 27.72 86 55.44 86 84 C57.62 84 29.24 84 0 84 C0 56.28 0 28.56 0 0 Z " fill="#EAEAEA" transform="translate(426,853)"/>
<path d="M0 0 C28.38 0 56.76 0 86 0 C86 27.72 86 55.44 86 84 C57.62 84 29.24 84 0 84 C0 56.28 0 28.56 0 0 Z " fill="#FEFEFE" transform="translate(0,853)"/>
<path d="M0 0 C27.72 0 55.44 0 84 0 C84 28.38 84 56.76 84 86 C56.28 86 28.56 86 0 86 C0 57.62 0 29.24 0 0 Z " fill="#FEFEFE" transform="translate(172,256)"/>
<path d="M0 0 C0 27.72 0 55.44 0 84 C-28.71 84 -57.42 84 -87 84 C-87 56.61 -87 29.22 -87 1 C-66.15678875 0.75043408 -66.15678875 0.75043408 -57.28710938 0.64453125 C-51.22973509 0.57220598 -45.17236129 0.49984133 -39.11499023 0.42724609 C-34.23263545 0.3687354 -29.35027861 0.31039805 -24.4679203 0.25218201 C-22.60316201 0.2299164 -20.73840447 0.20758784 -18.87364769 0.18519592 C-16.26627163 0.15389732 -13.65889302 0.12282052 -11.05151367 0.09179688 C-10.27683746 0.08244614 -9.50216125 0.0730954 -8.70401001 0.0634613 C-5.80245085 0.02911931 -2.90179399 0 0 0 Z " fill="#FEFEFE" transform="translate(1024,86)"/>
<path d="M0 0 C27.72 0 55.44 0 84 0 C84 28.38 84 56.76 84 86 C56.28 86 28.56 86 0 86 C0 57.62 0 29.24 0 0 Z " fill="#E9EAE9" transform="translate(172,0)"/>
<path d="M0 0 C27.72 0 55.44 0 84 0 C84.04010881 21.17299479 84.04010881 21.17299479 84.04882812 30.16601562 C84.05481671 36.31356667 84.0619174 42.46110289 84.07543945 48.60864258 C84.08626787 53.5623141 84.09227674 58.51596974 84.09487724 63.46965218 C84.09673157 65.36397616 84.10035234 67.25829924 84.10573006 69.1526165 C84.11293989 71.79634386 84.11399097 74.44000471 84.11352539 77.08374023 C84.11712067 77.87495773 84.12071594 78.66617523 84.12442017 79.48136902 C84.11405216 84.88594784 84.11405216 84.88594784 83 86 C80.41357081 86.09507964 77.85405064 86.12555068 75.26733398 86.11352539 C74.44450204 86.11364593 73.62167009 86.11376646 72.77390385 86.11389065 C70.09794009 86.11314145 67.42204512 86.10551294 64.74609375 86.09765625 C63.09899936 86.09618685 61.45190452 86.09516613 59.80480957 86.09460449 C53.68236595 86.08935137 47.55993231 86.07539029 41.4375 86.0625 C27.763125 86.041875 14.08875 86.02125 0 86 C0 57.62 0 29.24 0 0 Z " fill="#FEFEFE" transform="translate(767,256)"/>
<path d="M0 0 C28.38 0 56.76 0 86 0 C85.67 27.72 85.34 55.44 85 84 C56.95 84 28.9 84 0 84 C0 56.28 0 28.56 0 0 Z " fill="#FEFEFE" transform="translate(86,342)"/>
<path d="M0 0 C28.05 0 56.1 0 85 0 C85 27.72 85 55.44 85 84 C56.95 84 28.9 84 0 84 C0 56.28 0 28.56 0 0 Z " fill="#EAEAEA" transform="translate(256,853)"/>
<path d="M0 0 C27.72 0 55.44 0 84 0 C84 28.05 84 56.1 84 85 C56.28 85 28.56 85 0 85 C0 56.95 0 28.9 0 0 Z " fill="#EAEAEA" transform="translate(512,768)"/>
<path d="M0 0 C28.05 0 56.1 0 85 0 C85 27.72 85 55.44 85 84 C56.95 84 28.9 84 0 84 C0 56.28 0 28.56 0 0 Z " fill="#FEFEFE" transform="translate(852,598)"/>
<path d="M0 0 C28.38 0 56.76 0 86 0 C86 27.39 86 54.78 86 83 C57.62 83 29.24 83 0 83 C0 55.61 0 28.22 0 0 Z " fill="#FEFEFE" transform="translate(0,87)"/>
<path d="M0 0 C27.72 0 55.44 0 84 0 C84 27.72 84 55.44 84 84 C80.35437613 85.21520796 77.01809591 85.13177569 73.22387695 85.11352539 C72.42062831 85.11364593 71.61737967 85.11376646 70.78979015 85.11389065 C68.18925903 85.11314416 65.58879955 85.10552792 62.98828125 85.09765625 C61.38293492 85.09618601 59.77758811 85.09516581 58.17224121 85.09460449 C52.21898683 85.08936108 46.26574271 85.07539989 40.3125 85.0625 C27.009375 85.041875 13.70625 85.02125 0 85 C0 56.95 0 28.9 0 0 Z " fill="#E9EAE9" transform="translate(597,171)"/>
<path d="M0 0 C0 4.08196867 -1.88745407 6.91593816 -3.75 10.4375 C-12.13086642 26.78781182 -15.60117274 43.34863696 -15.4375 61.625 C-15.43379395 62.3691214 -15.43008789 63.1132428 -15.42626953 63.87991333 C-15.25792314 87.685304 -10.09094236 109.40478328 4 129 C3.79503906 128.02160156 3.59007812 127.04320312 3.37890625 126.03515625 C3.10655819 124.71098122 2.83443494 123.38675993 2.5625 122.0625 C2.29566406 120.77472656 2.02882813 119.48695313 1.75390625 118.16015625 C-1.95704948 98.7367082 -0.08177079 80.71977677 6 62 C6.33 62 6.66 62 7 62 C7.05607422 63.85238281 7.05607422 63.85238281 7.11328125 65.7421875 C7.96826648 89.35058449 12.22751191 110.87202335 23 132 C23.56847656 133.134375 24.13695312 134.26875 24.72265625 135.4375 C39.77061268 164.50507871 64.2832138 185.15204002 93 200 C94.06976074 200.5583252 94.06976074 200.5583252 95.16113281 201.12792969 C120.58547434 214.23683193 148.34048216 220.47014556 176 227 C176.72525879 227.17164673 177.45051758 227.34329346 178.19775391 227.5201416 C207.43542275 234.41920556 237.22114518 240.42339521 267.17114258 243.11425781 C268.17298584 243.20674805 269.1748291 243.29923828 270.20703125 243.39453125 C271.0678833 243.46518799 271.92873535 243.53584473 272.81567383 243.60864258 C275 244 275 244 278 246 C240.09911202 246.62958286 201.37325212 243.61397323 164 237 C162.83903809 236.79648926 161.67807617 236.59297852 160.48193359 236.38330078 C99.56894018 225.59813126 35.46306028 206.11939815 -2.69140625 153.37109375 C-23.69348831 123.17416875 -33.59943811 88.44193199 -27.3125 51.8125 C-23.58756759 31.91457017 -14.61105014 14.15013373 0 0 Z " fill="#E4DBBF" transform="translate(493,445)"/>
<path d="M0 0 C27.72 0 55.44 0 84 0 C84 27.72 84 55.44 84 84 C56.28 84 28.56 84 0 84 C0 56.28 0 28.56 0 0 Z " fill="#FEFEFE" transform="translate(172,853)"/>
<path d="M0 0 C27.72 0 55.44 0 84 0 C84 27.39 84 54.78 84 83 C56.28 83 28.56 83 0 83 C-1.27381328 80.45237344 -1.12702221 78.66598986 -1.12939453 75.8137207 C-1.13254669 74.72690506 -1.13569885 73.64008942 -1.13894653 72.52033997 C-1.1369223 71.33413559 -1.13489807 70.14793121 -1.1328125 68.92578125 C-1.13376923 67.69578903 -1.13472595 66.46579681 -1.13571167 65.1985321 C-1.13656919 61.90457427 -1.13253897 58.61066305 -1.12695312 55.31671143 C-1.12377761 52.05813947 -1.13136637 48.79958309 -1.13671875 45.54101562 C-1.13605612 42.98177059 -1.13477117 40.42252562 -1.1328125 37.86328125 C-1.13483673 36.71958572 -1.13686096 35.5758902 -1.13894653 34.39753723 C-1.10749305 22.89234556 -0.50133457 11.53069519 0 0 Z " fill="#E9E9E9" transform="translate(257,87)"/>
<path d="M0 0 C27.72 0 55.44 0 84 0 C84 27.39 84 54.78 84 83 C56.28 83 28.56 83 0 83 C0 55.61 0 28.22 0 0 Z " fill="#FEFEFE" transform="translate(172,87)"/>
<path d="M0 0 C23.49369686 11.74684843 45.0433311 32.41356768 61 53 C61.80953125 54.00417969 62.6190625 55.00835937 63.453125 56.04296875 C69.76243458 63.93385401 75.0232861 72.21836832 80 81 C80.34272949 81.58974609 80.68545898 82.17949219 81.03857422 82.78710938 C92.78720445 103.05616794 101.76869818 126.28204741 100 150 C99.67 150.99 99.34 151.98 99 153 C97.140625 152.75390625 97.140625 152.75390625 95 152 C93.734375 150.15234375 93.734375 150.15234375 92.75 147.9375 C92.41484375 147.20402344 92.0796875 146.47054687 91.734375 145.71484375 C91.49203125 145.14894531 91.2496875 144.58304688 91 144 C90.97421875 145.29292969 90.9484375 146.58585938 90.921875 147.91796875 C90.18225622 173.5968403 90.18225622 173.5968403 81.46484375 182.73046875 C78.87164668 184.97790621 77.16584131 185.97448595 73.75 186.5 C68.68413517 185.82455136 66.27349143 183.82859721 63 180 C58.11035817 172.54837331 55.79815099 163.77966088 55 155 C53.9275 155.103125 52.855 155.20625 51.75 155.3125 C48 155 48 155 45.94921875 152.90625 C43.82847298 149.74425631 42.41596067 146.74572849 41.0625 143.1875 C40.59972656 142.02605469 40.13695312 140.86460937 39.66015625 139.66796875 C38.92688024 135.59373103 39.79718527 133.90736925 41.28895569 130.17524719 C42.44525348 126.63786777 42.37184725 123.25221821 42.29296875 119.5625 C42.28660149 118.41418701 42.28660149 118.41418701 42.28010559 117.24267578 C42.26348328 114.82807313 42.22586506 112.41434489 42.1875 110 C42.17243178 108.35027258 42.15874714 106.70053191 42.14648438 105.05078125 C42.11363417 101.0335238 42.06196973 97.01690948 42 93 C44.72074655 96.32779485 46.88760322 99.4325067 48.75 103.3125 C49.17796875 104.19550781 49.6059375 105.07851563 50.046875 105.98828125 C50.36140625 106.65214844 50.6759375 107.31601562 51 108 C51.33 108 51.66 108 52 108 C52.74562657 91.26482598 49.64117346 77.45452697 43 62 C42.7323584 61.36513672 42.4647168 60.73027344 42.18896484 60.07617188 C34.8309117 42.80905223 24.43828606 27.97096586 12 14 C11.31808594 13.19691406 10.63617187 12.39382813 9.93359375 11.56640625 C6.84603777 7.93202611 3.75828353 4.96107187 0 2 C0 1.34 0 0.68 0 0 Z " fill="#B1B1B1" transform="translate(689,371)"/>
<path d="M0 0 C2.94572095 3.46763547 4.49244452 7.33556806 6.1875 11.5 C9.34460962 18.95611656 13.21281352 25.45005513 18 32 C18.69996094 32.98484375 19.39992188 33.9696875 20.12109375 34.984375 C38.82828674 60.72760671 64.0947554 79.2475525 94 90 C91.03 85.71 88.06 81.42 85 77 C85.33 76.34 85.66 75.68 86 75 C86.76441406 75.54527344 87.52882813 76.09054687 88.31640625 76.65234375 C103.79219642 87.54685307 120.08600058 96.52021282 137 105 C137.85883789 105.4345752 138.71767578 105.86915039 139.60253906 106.31689453 C165.73968923 119.38546962 194.55874543 127.70846127 223 134 C223.65421936 134.14610718 224.30843872 134.29221436 224.98248291 134.44274902 C257.4530066 141.68885145 289.84599827 145.60724424 323 148 C322.67 148.66 322.34 149.32 322 150 C240.18643451 150.88483973 240.18643451 150.88483973 207 146 C206.31000916 145.89862732 205.62001831 145.79725464 204.90911865 145.69281006 C190.74524847 143.57945477 176.82906244 140.70094953 163 137 C161.78828125 136.71769531 160.5765625 136.43539062 159.328125 136.14453125 C139.51750487 131.51531491 120.45047362 124.52411168 102 116 C101.17580566 115.62149902 100.35161133 115.24299805 99.50244141 114.85302734 C89.39160688 110.15452155 79.79754444 104.83636434 70.375 98.875 C69.4869165 98.31337158 68.59883301 97.75174316 67.68383789 97.1730957 C61.46790918 93.15123035 55.70371633 88.71466765 50 84 C49.36642578 83.48356934 48.73285156 82.96713867 48.08007812 82.43505859 C30.98767272 68.4306554 18.23161915 52.78956453 8.81201172 32.71240234 C8.1529311 31.32250714 7.45856702 29.94938239 6.75390625 28.58203125 C2.67891058 20.38447187 -0.50424421 9.14843065 0 0 Z " fill="#7AA6A3" transform="translate(400,558)"/>
<path d="M0 0 C2.32249682 2.20463877 4.17757342 4.54075176 6.0625 7.125 C14.75584203 18.29440826 26.5914644 26.77910885 39.75 32 C44.59655007 33.99670602 48.22427725 37.27324227 52.19140625 40.640625 C61.69950663 48.62795828 72.70558978 56.68354226 84 62 C85.11375 62.556875 86.2275 63.11375 87.375 63.6875 C88.0659375 64.03167969 88.756875 64.37585938 89.46875 64.73046875 C91.4102863 65.7042331 93.34687467 66.68786814 95.28125 67.67578125 C101.32641902 70.75205066 107.3604653 73.67642791 113.703125 76.1015625 C116.030779 77.0120394 118.29092634 78.02070932 120.5625 79.0625 C128.24686789 82.50306193 136.27555696 84.68765471 144.375 86.9375 C147.05363767 87.72261794 149.66546939 88.56307762 152.30078125 89.47265625 C157.19677885 91.12051684 162.14780517 92.31706051 167.1875 93.4375 C168.14382324 93.65067871 169.10014648 93.86385742 170.08544922 94.08349609 C197.48187186 100.10128524 224.84852658 102.98820944 252.83056641 104.35400391 C253.57213486 104.3907019 254.31370331 104.4273999 255.07774353 104.46520996 C257.090982 104.56350234 259.10444487 104.65716764 261.11791992 104.75048828 C263.8668232 104.92716768 266.53344264 105.17146257 269.26074219 105.50708008 C274.70019502 106.13703769 280.12656348 106.22723242 285.59765625 106.31640625 C287.20996376 106.3475779 287.20996376 106.3475779 288.85484314 106.37937927 C292.25733619 106.44428168 295.65990032 106.50348146 299.0625 106.5625 C301.38216854 106.60574174 303.70183013 106.64935775 306.02148438 106.69335938 C311.68091846 106.7999015 317.34042337 106.90133257 323 107 C323 112.61 323 118.22 323 124 C315.6560946 124.07141561 308.44213275 123.85240969 301.125 123.25 C300.03461426 123.16129639 298.94422852 123.07259277 297.82080078 122.98120117 C295.31197984 122.77481349 292.80336607 122.56589788 290.29492188 122.35498047 C287.255334 122.10103055 284.21499017 121.85982285 281.17382812 121.62548828 C228.83134928 117.58193171 176.70861476 110.31800225 126.20117188 95.63427734 C123.91451166 94.97536616 121.62182394 94.34096577 119.328125 93.70703125 C82.7972922 83.41800435 42.07190799 65.76817016 18 35 C17.30777344 34.17886719 16.61554687 33.35773437 15.90234375 32.51171875 C10.95161641 26.3721375 7.32190785 20.10375211 3.9375 13 C3.54320801 12.17459717 3.14891602 11.34919434 2.74267578 10.4987793 C0.95129028 6.59872527 0 4.39868598 0 0 Z " fill="#E7DCC0" transform="translate(529,552)"/>
<path d="M0 0 C27.72 0 55.44 0 84 0 C84 20.46 84 40.92 84 62 C77.88267829 61.32029759 73.63581487 60.66940619 68 59 C45.92062106 54.05098532 22.36546363 55.80090092 0 56 C0 37.52 0 19.04 0 0 Z " fill="#E9EAE9" transform="translate(512,256)"/>
<path d="M0 0 C209.88 0 419.76 0 636 0 C636 0.33 636 0.66 636 1 C524.13 1 412.26 1 297 1 C297 13.21 297 25.42 297 38 C268.62 38 240.24 38 211 38 C211 25.79 211 13.58 211 1 C141.37 1 71.74 1 0 1 C0 0.67 0 0.34 0 0 Z " fill="#A4A6A5" transform="translate(215,722)"/>
<path d="M0 0 C28.05 0 56.1 0 85 0 C85 12.21 85 24.42 85 37 C56.95 37 28.9 37 0 37 C0 24.79 0 12.58 0 0 Z " fill="#B3B3B2" transform="translate(341,723)"/>
<path d="M0 0 C21.78 0 43.56 0 66 0 C61.50113379 6.74829932 61.50113379 6.74829932 59.0390625 9.70703125 C58.49217773 10.36735352 57.94529297 11.02767578 57.38183594 11.70800781 C56.80208008 12.40249023 56.22232422 13.09697266 55.625 13.8125 C54.3723955 15.32421847 53.11979134 16.83593723 51.8671875 18.34765625 C50.57827977 19.89856613 49.28921807 21.44934808 48 23 C40.59458128 31.91724488 33.25557619 40.85419402 26.234375 50.078125 C22.89560512 54.44420868 19.44947912 58.72125216 16 63 C14.64487275 64.68672871 13.29071069 66.3742333 11.9375 68.0625 C10.95910156 69.28259766 10.95910156 69.28259766 9.9609375 70.52734375 C7.38107636 73.78043559 4.85884787 77.07650554 2.34765625 80.3828125 C1.90292969 80.91648437 1.45820313 81.45015625 1 82 C0.67 82 0.34 82 0 82 C0 54.94 0 27.88 0 0 Z " fill="#E9EAE9" transform="translate(256,426)"/>
<path d="M0 0 C13.86 0 27.72 0 42 0 C42 12.54 42 25.08 42 38 C55.86 38 69.72 38 84 38 C84 40.31 84 42.62 84 45 C56.28 45 28.56 45 0 45 C0 30.15 0 15.3 0 0 Z " fill="#FEFEFE" transform="translate(172,723)"/>
<path d="M0 0 C12.39582207 -0.0314179 24.7916435 -0.05125532 37.1875 -0.0625 C38.12430477 -0.06335602 39.06110954 -0.06421204 40.02630234 -0.06509399 C70.95816248 -0.08998201 101.88316524 0.10786337 132.8125 0.5 C133.75615292 0.51195782 134.69980583 0.52391563 135.67205429 0.53623581 C147.11482722 0.68202776 158.55746817 0.83638025 170 1 C170 3.31 170 5.62 170 8 C141.95 8 113.9 8 85 8 C85 35.72 85 63.44 85 92 C84.67 92 84.34 92 84 92 C84 64.28 84 36.56 84 8 C56.28 8 28.56 8 0 8 C0 5.36 0 2.72 0 0 Z " fill="#EBEBEB" transform="translate(512,760)"/>
<path d="M0 0 C11.88 0 23.76 0 36 0 C36.6416463 5.77481674 37.12768851 10.97158149 37.1328125 16.703125 C37.13376923 17.38880554 37.13472595 18.07448608 37.13571167 18.78094482 C37.13638515 20.21268812 37.13458972 21.64443463 37.13037109 23.07617188 C37.12497731 25.2591841 37.13036143 27.44199374 37.13671875 29.625 C37.13605847 31.02604212 37.13477834 32.42708411 37.1328125 33.828125 C37.13168457 35.0852832 37.13055664 36.34244141 37.12939453 37.63769531 C37.01687488 40.5615078 36.67997268 43.16261648 36 46 C32.70530994 46.40343144 30.08362264 46.60700853 27.1171875 44.9453125 C19.21690727 38.61824825 15.56041668 28.26484389 14.3125 18.4375 C14.209375 17.303125 14.10625 16.16875 14 15 C12.9275 15.103125 11.855 15.20625 10.75 15.3125 C7 15 7 15 4.75 13.125 C3 10 3 10 0 0 Z " fill="#A6A6A6" transform="translate(730,511)"/>
<path d="M0 0 C0.33 0 0.66 0 1 0 C1 28.38 1 56.76 1 86 C56.77 86 112.54 86 170 86 C170 86.33 170 86.66 170 87 C114.23 87 58.46 87 1 87 C1 114.39 1 141.78 1 170 C57.76 170 114.52 170 173 170 C173 170.33 173 170.66 173 171 C116.24 171 59.48 171 1 171 C1 227.1 1 283.2 1 341 C29.38 341 57.76 341 87 341 C86.67 341.66 86.34 342.32 86 343 C57.95 342.67 29.9 342.34 1 342 C1 369.72 1 397.44 1 426 C0.67 426 0.34 426 0 426 C-0.22795991 415.37562044 -0.40615992 404.75064217 -0.5625 394.125 C-0.5815999 392.82893515 -0.5815999 392.82893515 -0.60108566 391.50668716 C-1.27492332 344.56811408 -0.87000239 297.62749811 -0.5625 250.6875 C-0.55610205 249.70802808 -0.5497041 248.72855616 -0.54311228 247.71940327 C-0.49826186 240.8645259 -0.45268653 234.00965361 -0.40649414 227.15478516 C-0.39777544 225.86039556 -0.39777544 225.86039556 -0.38888061 224.53985667 C-0.26807256 206.69317015 -0.13249909 188.84660777 0 171 C-27.39 171 -54.78 171 -83 171 C-83 170.67 -83 170.34 -83 170 C-55.61 170 -28.22 170 0 170 C-0.185625 157.91375 -0.37125 145.8275 -0.5625 133.375 C-0.9948302 101.49064747 -0.99006462 69.63410448 -0.5625 37.75 C-0.54327925 36.31529987 -0.54327925 36.31529987 -0.5236702 34.85161591 C-0.36646695 23.23412875 -0.19232027 11.61695858 0 0 Z " fill="#F4F4F4" transform="translate(851,0)"/>
<path d="M0 0 C112.53 0 225.06 0 341 0 C341 0.33 341 0.66 341 1 C313.28 1 285.56 1 257 1 C257 8.59 257 16.18 257 24 C256.67 24 256.34 24 256 24 C256 16.41 256 8.82 256 1 C228.28 1 200.56 1 172 1 C172 28.39 172 55.78 172 84 C199.72 84 227.44 84 256 84 C256.33 83.34 256.66 82.68 257 82 C257 82.66 257 83.32 257 84 C284.39 84 311.78 84 340 84 C340 84.33 340 84.66 340 85 C284.56 85 229.12 85 172 85 C172 112.39 172 139.78 172 168 C171.67 168 171.34 168 171 168 C171 140.61 171 113.22 171 85 C114.57 85 58.14 85 0 85 C0 84.67 0 84.34 0 84 C56.43 84 112.86 84 171 84 C171 56.61 171 29.22 171 1 C114.57 1 58.14 1 0 1 C0 0.67 0 0.34 0 0 Z " fill="#F3F3F3" transform="translate(0,86)"/>
<path d="M0 0 C13.86 0 27.72 0 42 0 C42 12.54 42 25.08 42 38 C83.58 38 125.16 38 168 38 C168 40.64 168 43.28 168 46 C139.95 46 111.9 46 83 46 C83 43.69 83 41.38 83 39 C69.14 39 55.28 39 41 39 C41 26.46 41 13.92 41 1 C27.47 1 13.94 1 0 1 C0 0.67 0 0.34 0 0 Z " fill="#E3E4E4" transform="translate(173,722)"/>
<path d="M0 0 C1.65 0.33 3.3 0.66 5 1 C5 26.74 5 52.48 5 79 C4.01 79.495 4.01 79.495 3 80 C-3.45813678 65.30721633 -7.17826198 53.46980282 -7.1875 37.3125 C-7.19974609 36.20455078 -7.21199219 35.09660156 -7.22460938 33.95507812 C-7.24202064 24.02485214 -6.50608501 14.38187213 -2.375 5.25 C-1.92898438 4.24453125 -1.48296875 3.2390625 -1.0234375 2.203125 C-0.68570313 1.47609375 -0.34796875 0.7490625 0 0 Z " fill="#EBEBEB" transform="translate(592,511)"/>
<path d="M0 0 C27.72 0 55.44 0 84 0 C84 2.31 84 4.62 84 7 C56.28 7 28.56 7 0 7 C0 4.69 0 2.38 0 0 Z " fill="#FEFEFE" transform="translate(512,761)"/>
<path d="M0 0 C27.72 0 55.44 0 84 0 C84 2.31 84 4.62 84 7 C56.28 7 28.56 7 0 7 C0 4.69 0 2.38 0 0 Z " fill="#FEFEFE" transform="translate(342,761)"/>
<path d="M0 0 C0.33 0 0.66 0 1 0 C1 28.05 1 56.1 1 85 C57.76 85 114.52 85 173 85 C173 85.33 173 85.66 173 86 C144.62 86 116.24 86 87 86 C87 96.23 87 106.46 87 117 C86.67 117 86.34 117 86 117 C86 106.77 86 96.54 86 86 C57.95 86 29.9 86 1 86 C1 106.13 1 126.26 1 147 C0.67 147 0.34 147 0 147 C0 126.87 0 106.74 0 86 C-27.39 86 -54.78 86 -83 86 C-83 85.67 -83 85.34 -83 85 C-55.61 85 -28.22 85 0 85 C0 56.95 0 28.9 0 0 Z " fill="#F3F2F3" transform="translate(851,512)"/>
<path d="M0 0 C0.33 0 0.66 0 1 0 C1 25.41 1 50.82 1 77 C3.64 77 6.28 77 9 77 C9 77.33 9 77.66 9 78 C6.36 78 3.72 78 1 78 C1 127.83 1 177.66 1 229 C0.67 229 0.34 229 0 229 C0 179.17 0 129.34 0 78 C-28.38 78 -56.76 78 -86 78 C-86 77.67 -86 77.34 -86 77 C-57.62 77 -29.24 77 0 77 C0 51.59 0 26.18 0 0 Z " fill="#F2F2F2" transform="translate(171,349)"/>
<path d="M0 0 C0.33 0 0.66 0 1 0 C1 17.82 1 35.64 1 54 C28.72 54 56.44 54 85 54 C85 54.33 85 54.66 85 55 C57.28 55 29.56 55 1 55 C1 82.06 1 109.12 1 137 C0.67 137 0.34 137 0 137 C0 109.94 0 82.88 0 55 C-27.72 55 -55.44 55 -84 55 C-84 54.67 -84 54.34 -84 54 C-56.28 54 -28.56 54 0 54 C0 36.18 0 18.36 0 0 Z " fill="#F5F5F5" transform="translate(596,32)"/>
<path d="M0 0 C6.11127131 1.03673353 10.25979185 6.11869389 14.3125 10.5 C18.48321998 16.67884441 19.44458722 21.73840875 19 29 C17.68 29 16.36 29 15 29 C13.31735351 26.76055049 11.97722786 24.67932204 10.625 22.25 C10.04117554 21.23740112 10.04117554 21.23740112 9.44555664 20.2043457 C0 3.64491551 0 3.64491551 0 0 Z " fill="#89AEA8" transform="translate(705,401)"/>
<path d="M0 0 C7.98886446 5.70633175 11.92591461 13.58931585 14.65234375 22.87109375 C15 25 15 25 14 28 C13.41605469 27.25556641 13.41605469 27.25556641 12.8203125 26.49609375 C8.15479793 20.83082606 3.12848394 17.02968807 -3 13 C-2.01 8.71 -1.02 4.42 0 0 Z " fill="#547876" transform="translate(660,434)"/>
<path d="M0 0 C0.495 0.99 0.495 0.99 1 2 C28.72 2 56.44 2 85 2 C85 2.33 85 2.66 85 3 C57.28 3 29.56 3 1 3 C1 11.25 1 19.5 1 28 C0.67 28 0.34 28 0 28 C0 19.75 0 11.5 0 3 C-23.76 3 -47.52 3 -72 3 C-72 2.67 -72 2.34 -72 2 C-48.24 2 -24.48 2 0 2 C0 1.34 0 0.68 0 0 Z " fill="#F3F3F3" transform="translate(681,595)"/>
<path d="M0 0 C4.95 0 9.9 0 15 0 C15 6.93 15 13.86 15 21 C10.49219563 15.36524454 10.49219563 15.36524454 8.45703125 12.51953125 C8.02326172 11.91302734 7.58949219 11.30652344 7.14257812 10.68164062 C6.48418945 9.75641602 6.48418945 9.75641602 5.8125 8.8125 C5.36197266 8.18408203 4.91144531 7.55566406 4.44726562 6.90820312 C1.12676222 2.25352444 1.12676222 2.25352444 0 0 Z " fill="#E7E7E7" transform="translate(751,426)"/>
<path d="M0 0 C3.28149648 0.25817157 6.56137498 0.53291586 9.84082031 0.81591797 C11.42065772 0.95060786 13.0007791 1.08197831 14.58105469 1.21142578 C17.40900189 1.44485781 20.23571805 1.6903893 23.0625 1.9375 C24.45505005 2.04940674 24.45505005 2.04940674 25.87573242 2.16357422 C27.19214722 2.28176514 27.19214722 2.28176514 28.53515625 2.40234375 C29.322854 2.46929443 30.11055176 2.53624512 30.92211914 2.60522461 C33 3 33 3 36 5 C21.29479376 5.11106651 6.67163815 5.06151387 -8 4 C-8 3.67 -8 3.34 -8 3 C-3.545 2.505 -3.545 2.505 1 2 C0.67 1.34 0.34 0.68 0 0 Z " fill="#C6C5B1" transform="translate(735,686)"/>
<path d="M0 0 C0.66 0 1.32 0 2 0 C2.67154933 1.28913487 3.33708859 2.58140204 4 3.875 C4.37125 4.59429687 4.7425 5.31359375 5.125 6.0546875 C6 8 6 8 6 10 C1.71 10 -2.58 10 -7 10 C-4.79851441 6.33085734 -2.81087163 3.17356474 0 0 Z " fill="#F9FAF9" transform="translate(697,501)"/>
<path d="M0 0 C0 0.33 0 0.66 0 1 C-3.3 1.66 -6.6 2.32 -10 3 C-10 3.66 -10 4.32 -10 5 C-12.64 5 -15.28 5 -18 5 C-18 4.01 -18 3.02 -18 2 C-18.66 1.67 -19.32 1.34 -20 1 C-13.34362157 -0.23839599 -6.7528064 -0.09139136 0 0 Z " fill="#8CB1AC" transform="translate(525,312)"/>
<path d="M0 0 C7.26 0.33 14.52 0.66 22 1 C21.67 1.66 21.34 2.32 21 3 C17.87517438 3.08687496 14.75065754 3.14034568 11.625 3.1875 C10.29082031 3.22520508 10.29082031 3.22520508 8.9296875 3.26367188 C7.65351562 3.27817383 7.65351562 3.27817383 6.3515625 3.29296875 C5.17327881 3.31653442 5.17327881 3.31653442 3.97119141 3.34057617 C3.32069824 3.22818604 2.67020508 3.1157959 2 3 C1.34 2.01 0.68 1.02 0 0 Z " fill="#6B9592" transform="translate(701,705)"/>
<path d="M0 0 C0 3.56669692 -0.91427943 5.06094631 -2.6875 8.125 C-3.18636719 9.01445312 -3.68523437 9.90390625 -4.19921875 10.8203125 C-6 13 -6 13 -8.70703125 13.8046875 C-9.46371094 13.86914062 -10.22039062 13.93359375 -11 14 C-8.93687686 10.33584124 -6.64127824 7.29451872 -3.8125 4.1875 C-3.09707031 3.39730469 -2.38164062 2.60710937 -1.64453125 1.79296875 C-1.10183594 1.20128906 -0.55914062 0.60960937 0 0 Z " fill="#E1D9BD" transform="translate(493,445)"/>
<path d="M0 0 C0.36552803 1.41377782 0.71695495 2.83120576 1.0625 4.25 C1.25972656 5.03890625 1.45695312 5.8278125 1.66015625 6.640625 C2.01497267 9.10394822 1.76877544 10.65604132 1 13 C0.16121545 11.71186658 -0.67086783 10.41936744 -1.5 9.125 C-1.9640625 8.40570312 -2.428125 7.68640625 -2.90625 6.9453125 C-4 5 -4 5 -4 3 C-1.34615385 0 -1.34615385 0 0 0 Z " fill="#6C8983" transform="translate(496,563)"/>
<path d="M0 0 C1.74690919 0.2143934 3.4974023 0.40107653 5.25 0.5625 C6.14203125 0.64628906 7.0340625 0.73007812 7.953125 0.81640625 C8.62859375 0.87699219 9.3040625 0.93757813 10 1 C10 1.33 10 1.66 10 2 C3.4 2 -3.2 2 -10 2 C-6.10308395 -0.59794403 -4.37360842 -1.2210987 0 0 Z " fill="#D2D3BD" transform="translate(499,370)"/>
<path d="M0 0 C0.33 0 0.66 0 1 0 C1 5.61 1 11.22 1 17 C0.67 17 0.34 17 0 17 C-0.33 14.03 -0.66 11.06 -1 8 C-1.99 8.495 -1.99 8.495 -3 9 C-2.01 6.03 -1.02 3.06 0 0 Z " fill="#8EACA8" transform="translate(731,482)"/>
<path d="M0 0 C1.45880109 0.14107747 2.91703551 0.28802415 4.375 0.4375 C5.59316406 0.55931641 5.59316406 0.55931641 6.8359375 0.68359375 C9 1 9 1 11 2 C10.67 2.99 10.34 3.98 10 5 C6.08788267 3.84414715 3.1254959 2.64465038 0 0 Z " fill="#CDD0BB" transform="translate(550,337)"/>
<path d="M0 0 C2.61527381 2.36620011 4.26440562 4.942048 6 8 C5.01 8.99 4.02 9.98 3 11 C0 4.5 0 4.5 0 0 Z " fill="#C9C7B1" transform="translate(529,552)"/>
<path d="M0 0 C0.99 0.99 1.98 1.98 3 3 C3 3.66 3 4.32 3 5 C2.34 5 1.68 5 1 5 C1 7.97 1 10.94 1 14 C0.67 14 0.34 14 0 14 C0 9.38 0 4.76 0 0 Z " fill="#E9E9E8" transform="translate(779,514)"/>
<path d="M0 0 C0 3.61537605 -0.89229241 5.11165997 -3 8 C-3.99 8 -4.98 8 -6 8 C-4.55746343 4.63408134 -2.66735273 2.48952921 0 0 Z " fill="#CAC8B1" transform="translate(493,445)"/>
<path d="M0 0 C0.66 0 1.32 0 2 0 C2.66 2.31 3.32 4.62 4 7 C2.68 6.67 1.36 6.34 0 6 C0 4.02 0 2.04 0 0 Z " fill="#99B2AF" transform="translate(734,471)"/>
<path d="M0 0 C3 4 3 4 2.6875 7.75 C2.460625 8.8225 2.23375 9.895 2 11 C1.67 11 1.34 11 1 11 C0.67 7.37 0.34 3.74 0 0 Z " fill="#6E9995" transform="translate(400,558)"/>
</svg>
